<svg xmlns="http://www.w3.org/2000/svg" viewBox="0 0 301 301"><defs><style>.cls-1{fill:#191919;stroke:#fff;stroke-miterlimit:10;}.cls-2{fill:#fff;}</style></defs><title>アセット 19</title><g id="レイヤー_2" data-name="レイヤー 2"><g id="レイヤー_1-2" data-name="レイヤー 1"><rect class="cls-1" x="0.5" y="0.5" width="300" height="300"/><path class="cls-2" d="M151.35,71.25C153,77.68,154.06,84.1,155,90.53s1.63,12.86,2.21,19.28c1.1,12.86,1.61,25.71,1.62,38.57s-.51,25.7-1.6,38.56c-.57,6.42-1.28,12.85-2.22,19.28a192.38,192.38,0,0,1-3.68,19.28,195.31,195.31,0,0,1-3.69-19.28c-.94-6.43-1.64-12.86-2.21-19.28-1.1-12.86-1.61-25.71-1.6-38.56s.52-25.71,1.62-38.57c.57-6.42,1.28-12.85,2.21-19.28A195.2,195.2,0,0,1,151.35,71.25Z"/><path class="cls-2" d="M216.93,168.47a89,89,0,0,1-5.21,12c-1.95,3.81-4.09,7.46-6.31,11a191.85,191.85,0,0,1-14.8,20.29A190.15,190.15,0,0,1,173.35,230c-6.26,5.66-12.81,11.07-20.58,15.47,2.92-8.44,7.07-15.85,11.5-23A196.46,196.46,0,0,1,196.37,184c3.12-2.83,6.33-5.6,9.72-8.2A89.11,89.11,0,0,1,216.93,168.47Z"/><path class="cls-2" d="M90.26,170a81.59,81.59,0,0,1,10.06,7.24c3.12,2.58,6.05,5.31,8.9,8.11a170.21,170.21,0,0,1,15.55,17.92,168.14,168.14,0,0,1,13,19.85,104.18,104.18,0,0,1,9.55,22.45,104.14,104.14,0,0,1-19-15.34,168,168,0,0,1-15.53-17.93,168.94,168.94,0,0,1-13-19.86c-1.91-3.5-3.74-7.07-5.37-10.78A79.66,79.66,0,0,1,90.26,170Z"/></g></g></svg>