<?xml version="1.0" encoding="utf-8"?>
<!-- Generator: Adobe Illustrator 23.0.1, SVG Export Plug-In . SVG Version: 6.00 Build 0)  -->
<svg version="1.1" id="レイヤー_1" xmlns="http://www.w3.org/2000/svg" xmlns:xlink="http://www.w3.org/1999/xlink" x="0px"
	 y="0px" viewBox="0 0 584.6 487" style="enable-background:new 0 0 584.6 487;" xml:space="preserve">
<style type="text/css">
	.st0{fill:#DDDDDD;}
	.st1{enable-background:new    ;}
</style>
<title>アセット 17</title>
<g>
	<g id="レイヤー_1-2">
		<path class="st0" d="M398.9,454.2l-91.5,26.7c-51.7,15.1-107.6,1.5-146.6-35.8l-68.9-65.9c-39-37.2-55.1-92.5-42.3-144.8
			l22.6-92.6c12.8-52.4,52.5-93.9,104.3-109L268,6.1c51.7-15.1,107.6-1.5,146.6,35.8l68.9,65.9c38.9,37.3,55.1,92.5,42.3,144.8
			l-22.6,92.6C490.4,397.5,450.6,439.1,398.9,454.2z"/>
		<path d="M5.2,206.4c1.9,8.1,3.2,16.3,3.8,24.6c0.7,8.2,1,16.4,1,24.5c0,8.2-0.4,16.3-1.2,24.5c-0.7,8.3-2,16.5-4,24.5
			C2.9,296.5,1.6,288.3,1,280c-0.7-8.2-1-16.3-1-24.5c0-8.2,0.4-16.4,1.2-24.5C1.9,222.7,3.2,214.5,5.2,206.4z"/>
		<path d="M19.8,256.4c4.5,2.2,8.8,4.9,12.6,8.1c3.7,3.1,7.2,6.4,10.5,10c3.2,3.6,6.2,7.4,8.9,11.5c2.8,4.1,5.1,8.6,6.8,13.4
			c-4.5-2.2-8.8-4.9-12.6-8.1c-3.7-3.1-7.2-6.4-10.5-10c-3.2-3.6-6.2-7.4-8.9-11.5C23.7,265.6,21.4,261.1,19.8,256.4z"/>
		<path d="M102.8,211.1c4.9,0,9.8,1.1,14.2,3.4c2.3,1.2,4.4,2.6,6.3,4.3c1.9,1.7,3.7,3.7,5.2,5.8c3,4.2,5.2,9,6.4,14
			c1.2,5,1.6,10.1,1.1,15.2c-0.9,10.1-4.7,19.7-10,28.1c-2.6,4.3-6,8-9.9,11.1c-4.1,3.2-8.8,5.3-13.9,6.1c-2.6,0.5-5.3,0.6-8,0.2
			c-2.8-0.4-5.5-1.3-8-2.7c-2.4-1.4-4.6-3.2-6.5-5.3c-1.8-2-3.3-4.3-4.6-6.7c-2.4-4.6-4.2-9.6-5.2-14.8c-1-5-1.4-10.2-1.2-15.3
			c0.2-5.1,1-10.2,2.4-15.1c1.4-5,3.6-9.7,6.6-13.9c2.9-4.2,6.7-7.8,11-10.6C92.8,212.5,97.7,211.1,102.8,211.1z M102.8,212.1
			c-4.7,0-9.1,1.9-12.4,5.2c-3.1,3.3-5.4,7.2-6.7,11.5c-2.7,8.5-4.1,17.3-4.3,26.1c-0.1,4.4,0.1,8.8,0.7,13.2
			c0.5,4.3,1.6,8.4,3.3,12.4c1.5,3.7,3.9,7,7,9.7c3.2,2.6,7.2,4,11.3,3.9c4.5,0.1,8.8-1.2,12.5-3.7c3.8-2.6,6.8-6.1,8.8-10.2
			c2.1-4.1,3.4-8.5,3.9-13.1c0.5-4.5,0.7-9,0.5-13.5c-0.1-4.4-0.5-8.8-1.2-13.2c-0.6-4.4-1.7-8.6-3.2-12.8c-0.8-2.1-1.8-4.1-3-5.9
			c-1.2-1.9-2.7-3.6-4.4-5.1c-1.8-1.5-3.8-2.6-6-3.4c-0.6-0.2-1.1-0.3-1.7-0.5l-1.7-0.4l-1.7-0.2L102.8,212.1z"/>
		<path d="M232.1,211.8c5.6-1.9,11.5-3.2,17.4-3.9c5.8-0.7,11.6-1.1,17.4-1.1c5.8,0,11.6,0.3,17.4,1.1c5.9,0.7,11.7,2,17.4,3.9
			c-5.6,1.9-11.5,3.3-17.4,3.9c-5.8,0.7-11.6,1.1-17.4,1.1c-5.8,0-11.6-0.4-17.4-1.1C243.6,215,237.8,213.7,232.1,211.8z"/>
		<path d="M265.1,219.5c1.9,7,3.2,14.1,3.9,21.3c0.7,7.1,1.1,14.2,1.1,21.3c0,7.1-0.3,14.2-1.1,21.3c-0.7,7.2-2,14.3-3.9,21.3
			c-1.9-7-3.3-14.1-3.9-21.3c-0.7-7.1-1.1-14.2-1.1-21.3c0-7.1,0.4-14.2,1.1-21.3C261.9,233.5,263.2,226.4,265.1,219.5z"/>
		<path d="M350.3,206.4c1.9,7.8,3.2,15.8,3.9,23.9c0.7,8,1.1,15.9,1.1,23.9c0,8-0.3,15.9-1.1,23.9c-0.7,8-2,16-3.9,23.9
			c-2-7.8-3.3-15.8-3.9-23.9c-0.7-8-1.1-15.9-1.1-23.9s0.4-15.9,1.1-23.9C347,222.3,348.4,214.3,350.3,206.4z"/>
		<path d="M476.1,206.4c10.3,6.4,20.2,13.4,29.7,20.9c9.5,7.4,18.8,15.1,27.8,23.1s17.8,16.2,26.4,24.7c8.7,8.5,16.8,17.4,24.5,26.8
			c-10.3-6.4-20.2-13.4-29.7-20.9c-9.5-7.4-18.8-15.1-27.8-23.1c-9-8-17.8-16.2-26.4-24.7C492,224.8,483.8,215.8,476.1,206.4z"/>
		<path d="M576.4,214.4c-4.1,8.4-8.7,16.5-14,24.3c-5.1,7.7-10.5,15.3-16.2,22.5s-11.7,14.4-17.9,21.2c-6.2,7-13,13.5-20.1,19.5
			c4.1-8.4,8.7-16.5,13.9-24.3c5.1-7.7,10.5-15.3,16.2-22.5c5.7-7.3,11.7-14.4,17.9-21.2C562.5,226.9,569.2,220.4,576.4,214.4z"/>
		<path d="M354.5,206.4c2.5-2.4,5.6-4.1,9-4.9c3.7-0.9,7.7-0.6,11.2,0.9c3.7,1.6,6.9,4.3,9,7.7c2.1,3.5,3.3,7.4,3.3,11.5
			c0,2-0.3,4-0.8,5.9l-0.4,1.4c-0.2,0.5-0.4,0.9-0.5,1.4l-0.6,1.3c-0.2,0.4-0.5,0.9-0.7,1.3c-1.9,3.2-4.4,6.1-7.4,8.3
			c-2.8,2.1-6,3.7-9.4,4.6c-3.2,1-6.6,1.4-10,1.4c2.7-2,5.4-3.7,7.7-5.7c2.3-1.8,4.4-3.8,6.4-6.1c3.6-4.3,5.7-9.1,5.8-13.8
			c0.1-4.8-2.1-9.3-5.9-12.2c-2.1-1.6-4.6-2.6-7.3-2.9C360.8,206,357.6,206,354.5,206.4z"/>
		<path d="M9.9,206.4c2.4-3.2,5.6-5.8,9.2-7.4c0.5-0.2,1-0.4,1.5-0.6l1.6-0.4c0.5-0.2,1.1-0.3,1.6-0.3l1.7-0.1
			c0.3,0,0.6-0.1,0.9-0.1l0.9,0.1l1.7,0.2c0.6,0.1,1.1,0.3,1.7,0.4c0.6,0.1,1.1,0.3,1.7,0.6c4.3,1.9,7.8,5.2,9.9,9.5
			c0.5,1,1,2,1.3,3.1l0.5,1.6c0.2,0.5,0.3,1.1,0.4,1.6c0.3,1.1,0.5,2.1,0.6,3.2c0.1,1.1,0.2,2.2,0.2,3.2c0,2.2-0.2,4.3-0.6,6.5
			c-0.4,2.1-1.1,4.2-1.9,6.2c-3.3,7.8-9.8,13.9-17.9,16.6c-1,0.3-1.9,0.6-2.9,0.8c-1,0.2-1.9,0.4-2.9,0.5l-1.5,0.2c-0.5,0-1,0-1.5,0
			c-1,0-1.9,0-2.9-0.1c3.3-1.7,6.4-3.6,9.3-5.8c2.7-2.1,5-4.5,7-7.2c3.7-5.1,5.7-11.3,5.6-17.6c-0.1-6.1-2.2-12.3-6.6-15.3
			c-2.5-1.6-5.5-2.3-8.4-2C16.7,204.1,13.2,205.1,9.9,206.4z"/>
		<path d="M359.8,249.9c3.7-0.6,7.4-0.6,11.1,0.1c3.8,0.7,7.5,2,10.9,4c3.7,2.2,6.7,5.3,8.8,9.1c2.2,4.1,2.8,9,1.7,13.5l-0.5,1.6
			c-0.2,0.5-0.4,1-0.6,1.6c-0.4,1-0.9,2-1.5,3c-0.5,1-1.2,1.8-1.8,2.6s-1.4,1.6-2.1,2.3c-2.8,2.8-6.1,5-9.7,6.7
			c-3.4,1.7-6.9,2.9-10.6,3.7c-3.6,0.8-7.2,1.2-10.9,1.2c6.1-4,12.2-7.5,17.3-11.6c2.5-1.9,4.8-4.1,6.8-6.5c0.4-0.6,0.9-1.1,1.3-1.7
			s0.8-1.2,1.1-1.8c0.3-0.6,0.6-1.2,0.9-1.8c0.1-0.3,0.2-0.6,0.3-0.9s0.1-0.6,0.2-0.9c0.1-0.3,0.2-0.6,0.2-0.9
			c0-0.3,0.1-0.6,0.1-0.9c0-0.6,0-1.2,0-1.8c0-0.6-0.1-1.2-0.2-1.8c0-0.3-0.2-0.6-0.3-0.9c-0.1-0.3-0.2-0.6-0.3-0.9l-0.4-0.9
			c-0.1-0.3-0.3-0.6-0.5-0.9c-0.3-0.6-0.7-1.2-1.1-1.8s-0.9-1.1-1.4-1.7s-1-1.1-1.6-1.6c-2.4-2.2-5-4.1-7.8-5.7
			C366.3,252.9,363.1,251.4,359.8,249.9z"/>
		<g class="st1">
			<path d="M81.3,349c-0.1,1-0.2,2-0.3,2.9c1.6,0.1,3.2,0.1,4.8,0.2c0.1-0.9,0.2-1.9,0.3-2.9c0.6,0.1,1.2,0.1,1.8,0.2
				c-0.1,0.9-0.2,1.9-0.2,2.8c1,0.1,2,0.1,3,0.2v0.8c0,0.4-0.1,0.7-0.1,0.9c-1.1,0-2.1,0-3,0c-0.2,2-0.4,4.1-0.7,6.2
				c-2.8-0.1-5.6-0.5-8.4-1.1c0.2-1.8,0.4-3.6,0.6-5.2c-1.4,0-2.7-0.1-3.9-0.1c-0.2,2.8-0.5,5.6-0.7,8.3c3.3,0.4,6.7,0.7,10.3,1
				c0,0.6-0.1,1.1-0.3,1.7c-4.2-0.1-8.3-0.5-12.1-1.3c0.2-3.2,0.4-6.5,0.8-9.8c-0.9-0.1-1.7-0.1-2.5-0.2c-0.1-0.1-0.1-0.4-0.1-0.9
				c0-0.3,0.1-0.6,0.2-0.9c0.9,0,1.8,0,2.6,0c0.1-1.1,0.2-2.3,0.3-3.4c0.7,0.1,1.3,0.2,1.9,0.3c-0.1,1.1-0.2,2.1-0.3,3.1
				c1.3,0,2.7,0.1,4,0.1c0.2-1.1,0.3-2.2,0.5-3.2C80.2,348.8,80.7,348.9,81.3,349z M80.8,354.1c-0.1,1.3-0.3,2.6-0.4,3.9
				c1.5,0.2,3.1,0.4,4.8,0.6c0.1-1.4,0.2-2.9,0.4-4.4C83.9,354.1,82.3,354.1,80.8,354.1z"/>
			<path d="M104,359.2c-1.7,1.2-3.6,2.3-5.8,3.4c-0.5-0.4-0.8-0.8-1-1.3c1.7-1.2,3.6-2.4,5.8-3.5C103.5,358.2,103.8,358.7,104,359.2
				z M112.8,356c0.3-2.5,0.5-5,0.6-7.5c-2.8-0.2-5.9-0.5-9.3-0.9c0-0.6,0.1-1.2,0.2-1.6c3.6,0.2,7.3,0.5,11,0.8
				c0,3.6-0.3,7.1-0.8,10.7c-0.6,0.2-2,0.2-4,0.2c-5.4-0.2-9.1-0.5-11-1.1c0-3.2,0.2-6.3,0.7-9.3c0.6,0,1.1,0.1,1.7,0.2
				c-0.1,1.2-0.2,2.3-0.3,3.5c1.4,0.1,2.8,0.1,4.2,0.2c0-0.8,0.1-1.5,0.3-2.2c0.3-0.1,0.5-0.1,0.8-0.1c0.3,0,0.5,0.1,0.7,0.1
				c0.1,0.9,0.2,1.7,0.2,2.3c1.3,0.1,2.7,0.2,4,0.3c0,0.5-0.1,1-0.2,1.4c-1.3,0-2.6,0-3.9-0.1c0,1.2-0.1,2.2-0.1,3
				C109.2,356,110.9,356,112.8,356z M101.3,355.2c0.8,0.3,2.4,0.5,4.7,0.7c-0.1-0.9-0.2-1.9-0.2-3c-1.5-0.1-2.9-0.2-4.3-0.3
				C101.5,353.4,101.4,354.3,101.3,355.2z M104.6,361.2c0,1.6-0.1,3.4-0.2,5.4c-0.2,0.1-0.5,0.1-0.9,0.1s-0.7-0.1-0.9-0.2
				c0-2.4,0.1-4.2,0.2-5.4c0.3,0,0.6-0.1,0.9-0.1C104,361.1,104.3,361.1,104.6,361.2z M112,366.6c-0.6,0.1-1.2,0.2-1.7,0.2
				c-0.3-2-0.5-3.9-0.5-5.9c0.6-0.1,1.2-0.2,1.8-0.2C111.7,362.7,111.9,364.7,112,366.6z M116.8,360.4c-0.1,0.3-0.2,0.5-0.4,0.7
				c-0.1,0.2-0.3,0.5-0.4,0.7c-1.4-0.4-2.7-1.1-3.9-2.1c0.2-0.6,0.5-1.1,0.9-1.5C114.2,358.9,115.5,359.6,116.8,360.4z"/>
			<path d="M139.4,364.3c-0.5-0.1-1-0.4-1.4-0.7c1.7-3.2,2.6-5.6,2.6-7.3c0-1.4-0.5-2.7-1.5-3.9c-1.5-1.6-3.5-2.5-5.8-2.5
				c-1.1,0-2.2,0.3-3.4,0.8c-2.5,1.5-3.8,3.5-3.8,6.2c0,0.9,0.3,1.8,0.8,2.6c0.5,0.6,0.9,1,1.1,1c0.2,0,0.5-0.3,0.9-0.9
				c1.7-2.2,3-4.1,3.9-5.5c0.5,0.3,1,0.6,1.3,1c-0.3,0.5-1.2,2-2.9,4.4c-1.6,2.3-2.6,3.5-2.9,3.5c-0.7,0-1.5-0.6-2.5-1.8
				c-0.9-1.3-1.4-2.7-1.4-4.2c0-3.3,1.4-5.8,4.2-7.5c1.4-0.8,2.9-1.2,4.6-1.2c3,0,5.4,1.1,7.3,3.2c1.1,1.4,1.7,3,1.7,4.9
				C142.4,358.7,141.4,361.4,139.4,364.3z"/>
			<path d="M155.3,355.9c-0.6,2.9-1.3,5.2-1.9,7c-0.6,0-1.2-0.1-1.6-0.4c0-0.2,0.5-2.6,1.6-7.2l1.3-5.9c0.6,0,1.2,0.1,1.7,0.3
				C156.2,351.3,155.8,353.3,155.3,355.9z M168,360.6c-0.8,0.2-2,0.2-3.4,0.2c-1.1,0-1.9-0.1-2.5-0.2c-0.1-0.7-0.1-1.5-0.1-2.4
				c0-2.6,0.2-5.5,0.7-8.6c0.1,0,0.3-0.1,0.7-0.1c0.3,0,0.6,0.1,0.8,0.1l-0.4,9.3l4.2,0.2c0.1,0.2,0.1,0.4,0.1,0.6
				C168.1,360.2,168,360.4,168,360.6z"/>
			<path d="M196.4,357.2c-4.7,0.1-9.2,0.1-13.5,0.1c-3.5,0-5.6,0-6.2-0.1c-0.1-0.3-0.1-0.6-0.1-0.8c0-0.2,0-0.6,0.1-0.9
				c4.9-0.1,8.9-0.2,12.1-0.2c1.5,0,4,0,7.7,0.1c0.1,0.4,0.1,0.7,0.1,0.9C196.4,356.4,196.4,356.8,196.4,357.2z"/>
			<path d="M206.8,354.4c-0.4,0.2-0.7,0.3-0.8,0.3c-0.6-0.9-1.2-2.6-2.1-5.2c0.5-0.4,1-0.6,1.6-0.6c0.4,0.6,1.1,2.3,2,5
				C207.4,354.1,207.2,354.2,206.8,354.4z M213.3,353.5c-0.8-1-1.7-2.4-2.9-4.2c0.2-0.3,0.6-0.7,1.3-1c0.7,0.8,1.7,2.1,2.9,4
				C214.3,353.1,213.9,353.4,213.3,353.5z M217.8,358.8c-2.3,3-3.8,4.8-4.4,5.4c-0.6-0.2-1-0.6-1.3-1.1c0.3-0.5,1.7-2.4,4.3-5.7
				s3.9-5,4.2-5.2c0.4,0.1,0.9,0.4,1.2,0.9C221.4,353.8,220.1,355.7,217.8,358.8z"/>
			<path d="M241.3,356.4c0.8,0.5,1.6,1.2,2.1,2c-0.2,0.4-0.5,0.8-1.1,1.1c-0.7-0.7-1.5-1.3-2.4-1.7c-1.3,1.6-2,2.9-2,4
				c0,1,1,1.5,3.1,1.5c1.3,0,2.5-0.2,3.6-0.4c0.2,0.4,0.3,0.8,0.3,1.5c-1.2,0.4-2.5,0.6-4.1,0.6c-3.2-0.1-4.8-1-4.8-2.9
				c0-1.6,0.8-3.2,2.2-4.9c-1.3-0.4-2.9-0.6-4.5-0.6c0.4-1.8,1.1-3.7,2-5.9c-1.7-0.1-3-0.2-4-0.2c-0.1-0.2-0.1-0.4-0.1-0.8
				c0-0.3,0-0.5,0.1-0.7c0.4,0,1.9,0,4.7-0.1c0.3-0.8,0.7-1.6,1.2-2.5c0.6,0.2,1.1,0.4,1.5,0.6c-0.2,0.7-0.4,1.3-0.6,1.9
				c1.9,0.1,4.6,0.2,8.2,0.4c0.1,0.1,0.1,0.3,0.1,0.8c0,0.4-0.1,0.7-0.1,0.8c-2.6,0-5.6,0-8.9-0.1l-1.6,4.3c1.4,0.1,2.6,0.2,3.6,0.5
				c0.8-0.8,1.9-1.6,3-2.4c0.4,0.2,0.7,0.6,1,1.1C242.7,355.1,241.9,355.8,241.3,356.4z"/>
			<path d="M265.1,347.9c-0.7,2-1.4,3.9-2.3,5.6c-0.5,1-1,1.9-1.4,2.8c-0.4,1-0.9,1.9-1.4,2.7c-0.6-0.1-1.2-0.3-1.6-0.7
				c0.6-1.4,1.2-2.7,1.7-3.9c-1.3-0.4-2.7-1.1-4.2-1.9c0.1-0.5,0.3-1.1,0.6-1.6c1.5,0.5,3,1.1,4.3,1.8c0.6-1.4,1.2-2.6,1.8-3.8
				c-2.2-0.8-4.3-1.6-6.1-2.4c0.1-0.6,0.3-1.1,0.6-1.6C259.7,345.9,262.3,346.9,265.1,347.9z M262.6,359.7c0.2-0.7,0.4-1.4,0.6-2.1
				c0.6,0.1,1.1,0.2,1.6,0.4c-0.1,0.6-0.2,1.2-0.3,1.7h3.5v-1.4c0.2-0.1,0.5-0.1,0.8-0.1c0.3,0,0.6,0,0.9,0.1c0,0.5,0,1,0.1,1.5
				c1.6,0,2.9,0.1,3.8,0.1c0,0.2,0.1,0.5,0.1,0.7v0.8c-0.4,0.1-1.7,0.2-3.8,0.2c0.1,1,0.1,2.1,0.2,3c0.3,0,0.7-0.1,1.1-0.1h1.2
				c0,0.2,0.1,0.5,0.1,0.8v0.8c-0.1,0.1-0.8,0.2-2.1,0.2c-1,0-1.6-0.1-2-0.1c-0.2-0.2-0.2-1.7-0.2-4.7c-1.1,0-2.4,0-3.8,0h-0.1
				c-0.4,1.8-0.7,3.5-1.2,5.2c0,0-0.4-0.1-1.1-0.2c-0.3-0.1-0.5-0.2-0.7-0.3c0.2-1.5,0.5-3.1,0.9-4.8c-1.1,0-2-0.1-2.6-0.2
				c-0.1-0.2-0.1-0.5-0.1-0.8c0-0.3,0-0.6,0.1-0.8C260.4,359.8,261.4,359.7,262.6,359.7z M267.4,355c1.8,0,3,0.1,3.8,0.2
				c0,0.2,0.1,0.5,0.1,0.7v0.8c-0.3,0.1-1.6,0.2-3.9,0.2c-2.2,0-3.7-0.1-4.6-0.2c-0.1-0.2-0.1-0.5-0.1-0.8c0-0.3,0-0.5,0.1-0.8
				C264,355,265.5,355,267.4,355z M274.3,348.2c-0.3,0.4-0.8,0.9-1.4,1.3c-0.3,0.3-0.6,0.6-1,0.9c-0.2,0.2-0.3,0.3-0.4,0.4
				c0.5,0.5,1,1,1.5,1.4c0.6-0.7,1.2-1.3,1.9-2c0.5,0.4,0.9,0.8,1.3,1.3c-0.3,0.3-0.6,0.6-1,1c-0.2,0.2-0.4,0.4-0.7,0.6
				c-0.1,0.1-0.2,0.2-0.2,0.2c0.5,0.5,0.9,0.9,1.4,1.4c-0.4,0.5-0.8,0.9-1.3,1.2c-2.6-2.1-4.9-4.3-6.9-6.7c0.3-0.5,0.7-0.9,1.2-1.2
				c0.5,0.5,1,0.9,1.4,1.3c0.9-0.9,1.9-1.8,2.8-2.7C273.5,347.3,273.9,347.7,274.3,348.2z"/>
			<path d="M288.7,353.4c-1.2,0.4-2.3,0.8-3.3,1.1c0.6,2.4,1,4.9,1.3,7.5c-0.5,0.2-1.1,0.3-1.6,0.3c-0.6-2.4-1.1-4.8-1.4-7.2
				c-0.8,0.2-1.6,0.4-2.3,0.5c-0.2-0.5-0.3-0.9-0.3-1.5c2.5-1.2,4.9-2,7.4-2.3C288.6,352.2,288.7,352.8,288.7,353.4z M297.1,346.4
				c0.1,1.1,0.1,2.1,0.2,2.8c1.6,0.1,3.3,0.2,4.8,0.4c0,0.5-0.1,1.1-0.2,1.8c-4,0-8.2-0.2-12.6-0.7c0-0.6,0.1-1.3,0.2-1.8
				c1.9,0.1,3.7,0.2,5.6,0.3c0-1,0.1-1.9,0.3-2.7c0.3-0.1,0.6-0.1,0.9-0.1C296.6,346.2,296.8,346.3,297.1,346.4z M297.6,356.8
				c-0.1,0.3-0.1,0.5-0.1,0.8c-0.1,0.4-0.1,0.7-0.2,0.9c-1,0-2.1-0.1-3.1-0.2c-1.1-0.1-2.1-0.2-3.1-0.3c0-0.5,0.1-1.1,0.2-1.7
				C293.5,356.4,295.6,356.5,297.6,356.8z M300.6,365.3c-2.5,0.4-5.3,0.6-8.4,0.7c-0.4-1.1-0.7-2.9-0.8-5.4c2.7-0.4,5.6-0.6,8.7-0.6
				C300.4,361.7,300.6,363.5,300.6,365.3z M299.1,353c0.1,0.3,0.1,0.5,0.1,0.8s0,0.6-0.1,0.8c-0.9,0.1-2.4,0.2-4.4,0.2
				c-0.9,0-1.5,0-1.9-0.1c-0.1-0.2-0.1-0.5-0.1-0.8s0-0.6,0.1-0.8c0.3-0.1,1-0.1,2.1-0.1C296.7,353,298.1,353,299.1,353z
				 M298.8,363.9l-0.3-2.2l-5.1,0.3l0.4,2.3L298.8,363.9z"/>
			<path d="M321.9,358.4c0,2.6-0.7,5.2-2.1,7.6c-0.2,0-0.5-0.1-0.8-0.2c-0.4-0.2-0.6-0.3-0.7-0.4c0.7-2.1,1.2-3.9,1.5-5.4
				c-0.5,1.2-1.6,1.8-3.1,1.8c-2.6-0.1-4-1.5-4.1-4.2c0.1-2.9,1.7-4.3,4.7-4.3c0.6,0,1.1,0.1,1.7,0.4c-0.1-0.8-0.1-1.6-0.2-2.6
				c-4.6,0-7.4,0-8.7-0.1c-0.1-0.2-0.1-0.5-0.1-0.9c0-0.2,0-0.5,0.1-0.8c1.4-0.1,3-0.1,4.6-0.1l3.9,0c-0.1-0.9-0.2-1.7-0.2-2.5
				c0.2-0.2,0.6-0.3,1.2-0.3c0.1,0,0.2,0,0.4,0c0.2,0.9,0.3,1.9,0.4,2.8c2.3,0.1,4.4,0.1,6.2,0.2c0.1,0.2,0.1,0.4,0.1,0.7
				c0,0.4,0,0.6-0.1,0.9c-1.2,0.1-3.1,0.1-6,0.1c0.1,1.5,0.2,2.8,0.2,3.8C321.4,355.8,321.7,356.9,321.9,358.4z M317.1,355.3
				c-1.7,0.1-2.6,0.9-2.6,2.5c0.1,1.5,0.8,2.3,2.2,2.3c1.5-0.1,2.2-1.1,2.2-3.2v-1C318.4,355.5,317.7,355.3,317.1,355.3z"/>
		</g>
		<g class="st1">
			<path d="M350.1,364.1c-1.3,0.9-2.8,1.4-4.6,1.4c-0.9,0-1.7-0.2-2.4-0.7c-0.8-0.5-1.3-1.2-1.3-2.1c0-0.5,0.2-1,0.5-1.3
				c0.4-0.3,0.8-0.5,1.4-0.5c1,0,2,0.2,3,0.7c0,0.5-0.2,0.9-0.4,1.3c-1-0.3-1.7-0.5-2.2-0.5c-0.4,0-0.7,0.1-0.7,0.4
				c0,0.8,0.8,1.2,2.5,1.2c1.1,0,2.1-0.4,3.1-1.2c0.9-0.8,1.4-1.8,1.4-2.8c0-1.2-0.4-2.2-1.3-2.9c-0.8-0.6-1.8-0.9-3-0.9
				c-1.7,0-3.1,0.5-4.3,1.4c-0.9,0.8-1.8,1.5-2.6,2.3c-0.4-0.2-0.8-0.5-1-0.8l6.6-9.7c-2.5-0.1-4.6-0.2-6.5-0.2
				c-0.1-0.4-0.1-0.6-0.1-0.8c0-0.2,0-0.5,0.1-0.7c1.1-0.1,2.6-0.1,4.5-0.1c0.7,0,1.6,0.1,2.7,0.2c1.3,0.1,2,0.2,2.1,0.3
				c-0.2,0.5-1.7,2.7-4.4,6.6c1.1-0.2,2-0.4,2.9-0.4c1.7,0,3.2,0.5,4.3,1.5c1.1,1,1.7,2.4,1.7,4.2
				C352.2,361.6,351.5,363,350.1,364.1z"/>
		</g>
		<g class="st1">
			<path d="M384.1,358.7c-1.2,4-2.3,6-3.2,6c-0.6,0-2-2.2-4.2-6.6c-3.1,4.4-4.9,6.5-5.3,6.5c-0.3,0-0.8-0.8-1.6-2.3
				c-1-2.3-1.9-4.9-2.7-8c-0.7-2.8-1.2-5.4-1.5-7.7c0.3-0.2,0.6-0.2,0.9-0.2c0.2,0,0.4,0,0.8,0c0.8,3.7,1.4,6.2,1.8,7.4
				c1,3.4,1.9,6,2.7,7.7c0.2-0.3,1.3-1.8,3.3-4.5c0.8-1.2,1.5-1.8,2-1.8c0.3,0,0.6,0.5,1.1,1.4c1.2,2.4,2.1,4,2.6,4.9
				c0.2-0.1,0.8-1.8,1.7-5.1c0.8-3.3,1.5-6.3,1.9-9c0.1,0,0.4,0,0.9,0c0.3,0,0.6,0.1,0.8,0.3C385.9,350.8,385.2,354.4,384.1,358.7z"
				/>
			<path d="M398.8,359.5c-1.1,0.4-4.2,0.7-9.1,0.9c0.6,1.7,1.9,2.5,4,2.5c1,0,1.9-0.2,2.9-0.7c0.3,0.4,0.4,0.8,0.5,1.5
				c-1.1,0.7-2.3,1-3.5,1c-2,0-3.5-0.5-4.6-1.6c-1-1-1.5-2.2-1.5-3.8c0-1.7,0.4-3,1.2-4.1c1.2-1.4,2.6-2.1,4.4-2.1
				c1.7,0,3,0.5,4,1.4c1.1,1.1,1.6,2.4,1.6,4C398.9,359.1,398.9,359.4,398.8,359.5z M396.4,356.3c-0.7-0.9-1.7-1.4-3.1-1.4
				c-1,0-1.9,0.4-2.7,1.2c-0.6,0.7-1,1.6-1.1,2.7c0.9-0.1,3.3-0.3,7.4-0.6C396.9,357.5,396.7,356.9,396.4,356.3z"/>
		</g>
		<g class="st1">
			<path d="M403.1,364.4c-0.4,0.1-0.6,0.2-0.8,0.2c-0.6,0-0.8,0-0.9-0.1c-0.2-0.5-0.3-3.9-0.3-10.2c0-4.5,0.1-7.1,0.2-7.7
				c0.4,0,0.7-0.1,0.8-0.1c0.2,0,0.5,0.1,0.9,0.1c0,0.2,0,2.6,0.1,7.3c0.1,3.7,0.1,6.4,0.1,8.2C403.2,363.6,403.2,364.3,403.1,364.4
				z M407.4,364.6c-1.1,0-2.2-0.4-3.3-1.2c0.1-0.4,0.2-0.7,0.2-0.9c0.1-0.2,0.2-0.4,0.3-0.6c1.2,0.5,2,0.8,2.6,0.8
				c2.2,0,3.4-1.3,3.4-3.8c-0.1-2.5-1.2-3.8-3.3-3.8c-0.9,0.1-1.9,0.3-2.9,0.8c-0.3-0.5-0.5-1-0.5-1.4c1-0.8,2.2-1.2,3.7-1.3
				c3.1,0.2,4.7,2.1,4.9,5.8C412.6,362.7,410.8,364.5,407.4,364.6z"/>
		</g>
		<g class="st1">
			<path d="M438.1,358.9l-3.9-1.7c-0.6,1-1.6,2.6-2.9,4.6c-1.6,2.3-2.8,3.7-3.3,4c-0.4-0.3-0.8-0.6-1.3-1.1c2.6-3.5,4.5-6.2,5.7-8.4
				l-5.6-2.4c0-0.4,0.2-1,0.6-1.6c0.2,0,1.2,0.3,2.9,0.9c1.5,0.6,2.5,1,3,1.3c1-2.1,2-4.8,3-8.1c0.2,0,0.4,0.1,0.8,0.2
				c0.4,0.2,0.6,0.3,0.7,0.3c-0.1,0.7-0.5,2.1-1.2,4.2c-0.7,2-1.2,3.4-1.6,4.2c2.1,1,3.3,1.7,3.7,2
				C438.7,358.1,438.5,358.6,438.1,358.9z"/>
			<path d="M468,357.2h-0.6c-0.3,0.1-0.6,0.1-0.7,0.1c-0.7,0-2.3-0.1-4.9-0.2l-3.4,8.7c-0.8-0.1-1.3-0.2-1.8-0.5
				c0.5-1.8,1.5-4.6,3-8.3c-4.9-0.3-7.7-0.5-8.2-0.6c-0.1-0.2-0.1-0.5-0.1-0.7c0-0.3,0-0.6,0.1-0.8c0.3,0,0.8-0.1,1.4-0.1
				c2,0,5,0.2,9,0.4c3.7,0.2,5.8,0.4,6.2,0.5c0.1,0.1,0.1,0.3,0.1,0.6C468.2,356.7,468.1,357,468,357.2z M466.4,349.4
				c-0.4,0.1-1.1,0.1-2.3,0.1c-1.5,0-3.5-0.1-6.1-0.2c-2.8-0.1-4.6-0.2-5.5-0.4c-0.1-0.3-0.1-0.5-0.1-0.7c0-0.3,0-0.5,0.1-0.8
				c0.5,0,1.2-0.1,2.1-0.1c4,0,8,0.2,11.8,0.5c0,0.1,0.1,0.4,0.1,0.7C466.5,348.9,466.5,349.2,466.4,349.4z M468.7,347.7
				c-0.4,0.3-0.7,0.4-0.8,0.4c-0.1,0-0.2-0.2-0.4-0.5c-0.2-0.3-0.3-0.6-0.3-0.8c0.1-0.1,0.3-0.2,0.7-0.4c0.3-0.2,0.5-0.3,0.6-0.3
				c0,0,0.2,0.2,0.4,0.5c0.2,0.4,0.3,0.6,0.4,0.7C469.3,347.4,469.1,347.5,468.7,347.7z M471.2,346.2c-0.4,0.2-0.6,0.4-0.7,0.4
				c-0.1,0-0.2-0.2-0.4-0.5c-0.2-0.3-0.3-0.6-0.3-0.8c0.5-0.4,0.9-0.6,1.2-0.8c0,0,0.2,0.2,0.4,0.6c0.2,0.4,0.4,0.6,0.4,0.6
				S471.6,346,471.2,346.2z"/>
			<path d="M479.8,358c-0.3-0.2-0.6-0.7-0.8-1.5c3-1.8,7-3.7,12.1-5.7c0.3,0.3,0.5,0.7,0.8,1.4C490.3,353.2,486.3,355.1,479.8,358z
				 M485.7,364.3c-0.3-2-0.5-4.6-0.8-7.9c0.3-0.1,0.8-0.1,1.6-0.1c0.4,2.9,0.8,5.5,1,7.8C487,364.3,486.4,364.3,485.7,364.3z"/>
			<path d="M520.6,353.4c-0.6,1.9-1,3.2-1.2,3.6c-0.9-0.1-1.5-0.3-1.7-0.6l1.6-5.2c-2.2-0.3-4.8-0.5-7.8-0.6c-0.2,0-2.8-0.1-7.8-0.2
				c-0.1-0.3-0.1-0.6-0.1-0.9c0-0.4,0-0.6,0.1-0.8c1-0.1,2.2-0.1,3.5-0.1c1.7,0,4.2,0.1,7.5,0.3c4,0.2,6.3,0.5,6.9,0.8
				C521.6,350.3,521.2,351.5,520.6,353.4z M511.2,360.2c-0.8,2.1-1.3,3.5-1.7,4.3c-0.2,0-0.4-0.1-0.9-0.3c-0.4-0.2-0.6-0.3-0.8-0.5
				l2.9-8.1c0.8,0.1,1.3,0.3,1.7,0.6C512.4,356.7,511.9,358.1,511.2,360.2z"/>
		</g>
		<path d="M188.7,211.1c4.9,0,9.8,1.1,14.2,3.4c2.3,1.2,4.4,2.6,6.3,4.3c1.9,1.7,3.7,3.7,5.2,5.8c3,4.2,5.2,9,6.4,14
			c1.2,5,1.6,10.1,1.1,15.2c-0.9,10.1-4.7,19.7-10,28.1c-2.6,4.3-6,8-9.9,11.1c-4.1,3.1-8.9,5.2-13.9,6.1c-2.6,0.5-5.3,0.6-8,0.2
			c-2.8-0.4-5.5-1.3-8-2.7c-2.4-1.4-4.6-3.2-6.5-5.3c-1.8-2-3.3-4.3-4.6-6.7c-2.4-4.6-4.2-9.6-5.2-14.8c-1-5-1.4-10.2-1.2-15.3
			c0.2-5.1,1-10.2,2.4-15.1c1.4-5,3.6-9.6,6.6-13.9c2.9-4.2,6.7-7.8,11-10.6C178.8,212.5,183.7,211.1,188.7,211.1z M188.7,212.1
			c-2.3,0-4.6,0.5-6.8,1.4c-2.1,0.9-4,2.2-5.6,3.8c-3.1,3.3-5.4,7.2-6.7,11.5c-1.4,4.2-2.4,8.5-3.1,12.9c-0.8,4.4-1.2,8.8-1.2,13.2
			c-0.1,4.4,0.1,8.8,0.7,13.2c0.5,4.3,1.6,8.4,3.3,12.4c1.5,3.7,3.9,7,7,9.7c3.2,2.6,7.2,4,11.3,3.9c4.5,0.1,8.8-1.2,12.5-3.7
			c3.7-2.6,6.8-6.1,8.8-10.2c2-4.1,3.4-8.5,3.9-13.1c0.6-4.5,0.7-9,0.5-13.5c-0.1-4.4-0.6-8.8-1.2-13.2c-0.6-4.4-1.7-8.6-3.2-12.8
			c-0.8-2.1-1.8-4.1-2.9-5.9c-1.2-1.9-2.7-3.6-4.4-5.1c-1.8-1.5-3.8-2.6-6-3.4c-0.6-0.2-1.1-0.3-1.7-0.5l-1.7-0.4l-1.7-0.2
			L188.7,212.1z"/>
		<path d="M442.2,211.1c4.9,0,9.8,1.1,14.2,3.4c2.3,1.2,4.4,2.6,6.3,4.3c1.9,1.7,3.7,3.7,5.2,5.8c3,4.2,5.2,9,6.4,14
			c1.2,5,1.6,10.1,1.1,15.2c-0.9,10.1-4.7,19.7-10,28.1c-2.6,4.3-6,8-9.9,11.1c-4.1,3.2-8.9,5.3-13.9,6.1c-2.6,0.5-5.3,0.6-8,0.2
			c-2.8-0.4-5.5-1.3-8-2.7c-2.4-1.4-4.6-3.2-6.5-5.3c-1.8-2.1-3.3-4.3-4.6-6.7c-2.4-4.6-4.2-9.6-5.2-14.8c-1-5-1.4-10.2-1.2-15.3
			c0.2-5.1,1-10.2,2.4-15.1c1.4-5,3.6-9.7,6.6-13.9c2.9-4.2,6.7-7.8,11-10.6C432.3,212.5,437.2,211.1,442.2,211.1z M442.2,212.1
			c-2.3,0-4.6,0.5-6.8,1.4c-2.1,0.9-4,2.2-5.6,3.8c-3.1,3.3-5.4,7.2-6.7,11.5c-2.7,8.5-4.1,17.3-4.3,26.1c-0.1,4.4,0.1,8.8,0.7,13.2
			c0.5,4.3,1.6,8.4,3.3,12.4c1.5,3.7,3.9,7,7,9.7c3.2,2.6,7.2,3.9,11.3,3.9c4.5,0.1,8.8-1.2,12.5-3.7c3.8-2.6,6.8-6.1,8.8-10.2
			c2-4.1,3.4-8.5,3.9-13.1c0.5-4.5,0.7-9,0.5-13.5c-0.1-4.4-0.5-8.8-1.2-13.2c-0.6-4.4-1.7-8.6-3.2-12.8c-0.8-2.1-1.7-4.1-3-5.9
			c-1.2-1.9-2.7-3.6-4.4-5.1c-1.8-1.5-3.8-2.6-6-3.4c-0.5-0.2-1.1-0.3-1.7-0.5l-1.7-0.4l-1.7-0.2L442.2,212.1z"/>
	</g>
</g>
</svg>
