<svg xmlns="http://www.w3.org/2000/svg" viewBox="0 0 1437 844"><defs><style>.cls-1{fill:#fff;stroke:#000;stroke-miterlimit:10;}</style></defs><title>アートボード 10</title><g id="レイヤー_1" data-name="レイヤー 1"><polygon class="cls-1" points="834.66 701.19 748.15 805.35 808.18 808.88 918.52 808.88 834.66 701.19"/><line class="cls-1" x1="834.44" y1="700.97" x2="807.96" y2="808.66"/><polyline class="cls-1" points="807.96 733.34 827.59 728.84 857.94 731.09"/><line class="cls-1" x1="844.15" y1="740.69" x2="865.42" y2="740.69"/><line class="cls-1" x1="822.51" y1="749.46" x2="865.34" y2="749.52"/><line class="cls-1" x1="834.44" y1="760.55" x2="880.89" y2="760.55"/><line class="cls-1" x1="838.85" y1="753.49" x2="838.85" y2="760.55"/><line class="cls-1" x1="816.83" y1="772.56" x2="875.05" y2="772.47"/><line class="cls-1" x1="848.56" y1="763.2" x2="848.56" y2="772.47"/><line class="cls-1" x1="823.85" y1="784.83" x2="899.03" y2="783.85"/><line class="cls-1" x1="862.85" y1="772.56" x2="862.85" y2="783.85"/><line class="cls-1" x1="810.89" y1="796.72" x2="854.74" y2="796.75"/><line class="cls-1" x1="840.62" y1="796.72" x2="840.62" y2="788.36"/><line class="cls-1" x1="875.05" y1="796.75" x2="901.97" y2="796.75"/><line class="cls-1" x1="888.51" y1="796.75" x2="888.51" y2="808.66"/><line class="cls-1" x1="798.02" y1="745.31" x2="823.85" y2="744.04"/><line class="cls-1" x1="813.43" y1="744.55" x2="811.93" y2="753.49"/><line class="cls-1" x1="792.51" y1="756.14" x2="820.87" y2="756.14"/><line class="cls-1" x1="804.11" y1="756.14" x2="803.1" y2="764.52"/><line class="cls-1" x1="775.04" y1="772.97" x2="807.96" y2="773.79"/><line class="cls-1" x1="791.62" y1="763.2" x2="788.09" y2="772.91"/><line class="cls-1" x1="770" y1="789.68" x2="812.42" y2="790.51"/><line class="cls-1" x1="793.83" y1="781.3" x2="791.62" y2="790.11"/><line class="cls-1" x1="802.68" y1="790.51" x2="800.01" y2="802.92"/><polygon class="cls-1" points="956.3 653.75 833.34 801.8 918.66 806.82 1075.5 806.82 956.3 653.75"/><line class="cls-1" x1="955.99" y1="653.43" x2="918.35" y2="806.51"/><polyline class="cls-1" points="918.35 699.45 946.25 693.05 989.4 696.25"/><line class="cls-1" x1="969.79" y1="709.9" x2="1000.03" y2="709.9"/><line class="cls-1" x1="939.04" y1="722.36" x2="999.91" y2="722.44"/><line class="cls-1" x1="955.99" y1="738.13" x2="1022.01" y2="738.13"/><line class="cls-1" x1="962.26" y1="728.09" x2="962.26" y2="738.13"/><line class="cls-1" x1="930.97" y1="755.2" x2="1013.71" y2="755.07"/><line class="cls-1" x1="976.07" y1="741.89" x2="976.07" y2="755.07"/><line class="cls-1" x1="940.93" y1="772.63" x2="1047.8" y2="771.25"/><line class="cls-1" x1="996.37" y1="755.2" x2="996.37" y2="771.25"/><line class="cls-1" x1="922.52" y1="789.54" x2="984.85" y2="789.57"/><line class="cls-1" x1="964.78" y1="789.54" x2="964.77" y2="777.65"/><line class="cls-1" x1="1013.71" y1="789.57" x2="1051.98" y2="789.57"/><line class="cls-1" x1="1032.84" y1="789.57" x2="1032.84" y2="806.51"/><line class="cls-1" x1="904.22" y1="716.46" x2="940.93" y2="714.66"/><line class="cls-1" x1="926.13" y1="715.39" x2="923.99" y2="728.09"/><line class="cls-1" x1="896.39" y1="731.85" x2="936.71" y2="731.85"/><line class="cls-1" x1="912.88" y1="731.85" x2="911.45" y2="743.77"/><line class="cls-1" x1="871.57" y1="755.78" x2="918.35" y2="756.95"/><line class="cls-1" x1="895.14" y1="741.89" x2="890.12" y2="755.69"/><line class="cls-1" x1="864.4" y1="779.53" x2="924.69" y2="780.71"/><line class="cls-1" x1="898.27" y1="767.61" x2="895.14" y2="780.14"/><line class="cls-1" x1="910.84" y1="780.71" x2="907.06" y2="798.35"/><polygon class="cls-1" points="1050.62 708.04 968.86 806.49 1025.59 809.82 1129.88 809.82 1050.62 708.04"/><line class="cls-1" x1="1050.41" y1="707.83" x2="1025.38" y2="809.61"/><polyline class="cls-1" points="1025.38 738.42 1043.94 734.17 1072.63 736.3"/><line class="cls-1" x1="1059.59" y1="745.37" x2="1079.7" y2="745.37"/><line class="cls-1" x1="1039.14" y1="753.66" x2="1079.61" y2="753.72"/><line class="cls-1" x1="1050.41" y1="764.14" x2="1094.31" y2="764.14"/><line class="cls-1" x1="1054.59" y1="757.47" x2="1054.59" y2="764.14"/><line class="cls-1" x1="1033.77" y1="775.49" x2="1088.79" y2="775.41"/><line class="cls-1" x1="1063.76" y1="766.65" x2="1063.76" y2="775.41"/><line class="cls-1" x1="1040.4" y1="787.09" x2="1111.46" y2="786.17"/><line class="cls-1" x1="1077.26" y1="775.49" x2="1077.26" y2="786.17"/><line class="cls-1" x1="1028.16" y1="798.33" x2="1069.6" y2="798.35"/><line class="cls-1" x1="1056.26" y1="798.33" x2="1056.25" y2="790.42"/><line class="cls-1" x1="1088.79" y1="798.35" x2="1114.24" y2="798.35"/><line class="cls-1" x1="1101.52" y1="798.35" x2="1101.52" y2="809.61"/><line class="cls-1" x1="1015.99" y1="749.73" x2="1040.4" y2="748.54"/><line class="cls-1" x1="1030.56" y1="749.02" x2="1029.14" y2="757.47"/><line class="cls-1" x1="1010.78" y1="759.97" x2="1037.59" y2="759.97"/><line class="cls-1" x1="1021.75" y1="759.97" x2="1020.8" y2="767.9"/><line class="cls-1" x1="994.28" y1="775.88" x2="1025.38" y2="776.66"/><line class="cls-1" x1="1009.95" y1="766.65" x2="1006.61" y2="775.82"/><line class="cls-1" x1="989.51" y1="791.68" x2="1029.6" y2="792.46"/><line class="cls-1" x1="1012.04" y1="783.75" x2="1009.95" y2="792.08"/><line class="cls-1" x1="1020.39" y1="792.46" x2="1017.88" y2="804.19"/><path class="cls-1" d="M731,709.8c-5.22,4.54-8.51,11.56-12.44,17.24q-4.69,6.78-9.43,13.51a20.77,20.77,0,0,1,5.87,8.3c1.6,4.8,3.64,13.23.66,16.64s-6.53,6.18-6.53,22v14.91h79.63V775.08c0-8.31-6.18-10-7-10.45a61.43,61.43,0,0,1,7-24.08q-5-8.87-10.56-17.43c-3.92-6.07-7.29-14.45-14.5-16.65-8.83-2.69-17.84-2.63-23.7-.94C736.69,706.48,733.42,707.66,731,709.8Z"/><path class="cls-1" d="M731,709.8s.95,33.88,3.66,36.14,22.33,5.18,29.09,0c2.26-2.26,4.74-36.76,4.74-36.76"/><path class="cls-1" d="M743.65,704.83s-1.13,8.92,0,9.79,10.82.64,11.5,0,0-9.79,0-9.79"/><path class="cls-1" d="M737.65,747.19s-.09,10.25-12,13.63-10,4.67-10,4.67"/><path class="cls-1" d="M761.49,747.19s2.23,11.15,12.83,14.31,7.37,3.13,7.37,3.13"/><rect class="cls-1" x="700.35" y="787.43" width="39.28" height="21.65" rx="5.93"/><rect class="cls-1" x="757.94" y="787.43" width="39.28" height="21.65" rx="5.93"/><path class="cls-1" d="M570.33,808.14h122l-1.14-18.62-8.88-1.72L680,750.85l-9.45-1.71-2.87-32.09-7.16-1.43L660,687.55l-8-1.43-.86-23.78-4.59-2.86s.29-14.32-.57-20.62-21.19-8.6-21.48,0-1.72,25.2-1.72,25.2l-8.59,6L612.44,693l-8,4.87-2,26.07-8,6.59L591.81,760l-9.16,4.3-3.15,37.81Z"/><line class="cls-1" x1="579.5" y1="802.13" x2="691.21" y2="789.52"/><path class="cls-1" d="M580,795.82s81.87-13.77,102-13.47"/><path class="cls-1" d="M591.81,760s43.54-12.6,78.78-10.88"/><path class="cls-1" d="M592.3,754.5s37.78-12.88,77.8-10.84"/><path class="cls-1" d="M602.41,723.93s18.33-10,58.15-8.31"/><path class="cls-1" d="M602.41,718.19s18.33-10,58.15-8.31"/><path class="cls-1" d="M612.44,693s8.88-8.88,39.53-6.87"/><path class="cls-1" d="M612.44,687.27s8.88-8.88,39.53-6.88"/><path class="cls-1" d="M622.75,664.06s3.15-4.58,23.77-4.58"/><path class="cls-1" d="M622.75,660.1s3.15-4.58,23.77-4.58"/><line class="cls-1" x1="628.64" y1="638.42" x2="628.64" y2="644.42"/><line class="cls-1" x1="639.3" y1="638.42" x2="639.3" y2="644.42"/><path class="cls-1" d="M502.47,698.59l30.64-.17.19,34.31,33.79-.18,10,3.35c-.73,10-5.68,14.7-10.4,14.72l-33.52.19.3,56.31-30.38.17-.3-56s-19.63,4.29-32.74.18-11.34-13.82-11.34-13.82l10.18-5.3,33.72-.18Z"/><line class="cls-1" x1="502.37" y1="693.25" x2="502.4" y2="698.59"/><line class="cls-1" x1="533.09" y1="693.08" x2="533.12" y2="698.42"/><path class="cls-1" d="M512.64,698.54l0-8.78c0-1.31,2.07-1.47,3.55-1.48l4.16,0c2.67,0,3,1.61,3,5.1l0,5.12"/><line class="cls-1" x1="502.5" y1="708.98" x2="533.17" y2="708.81"/><line class="cls-1" x1="502.56" y1="719.52" x2="533.23" y2="719.35"/><line class="cls-1" x1="502.62" y1="730.06" x2="533.28" y2="729.89"/><line class="cls-1" x1="502.58" y1="732.12" x2="502.69" y2="751.24"/><line class="cls-1" x1="492.39" y1="741.73" x2="492.45" y2="752.76"/><line class="cls-1" x1="482" y1="741.79" x2="482.06" y2="752.82"/><line class="cls-1" x1="471.91" y1="741.85" x2="471.97" y2="752.02"/><line class="cls-1" x1="544.19" y1="741.45" x2="544.24" y2="750.75"/><line class="cls-1" x1="554.28" y1="741.39" x2="554.33" y2="750.69"/><line class="cls-1" x1="564.67" y1="741.34" x2="564.72" y2="750.64"/><line class="cls-1" x1="510.38" y1="719.48" x2="518.17" y2="732.64"/><line class="cls-1" x1="525.81" y1="719.39" x2="518.17" y2="732.64"/><line class="cls-1" x1="510.21" y1="742.48" x2="514.36" y2="742.46"/><line class="cls-1" x1="520.3" y1="742.43" x2="525.05" y2="742.4"/><line class="cls-1" x1="512.34" y1="752.89" x2="517.24" y2="752.86"/><line class="cls-1" x1="522.73" y1="752.6" x2="527.77" y2="752.57"/><line class="cls-1" x1="502.75" y1="763.89" x2="533.21" y2="763.73"/><line class="cls-1" x1="502.82" y1="776.06" x2="533.27" y2="775.9"/><line class="cls-1" x1="513" y1="763.84" x2="513.06" y2="776.01"/><line class="cls-1" x1="523.68" y1="763.78" x2="523.75" y2="775.95"/><line class="cls-1" x1="502.95" y1="786.9" x2="532.71" y2="786.73"/><line class="cls-1" x1="503.01" y1="796.99" x2="533.39" y2="796.82"/><circle class="cls-1" cx="512.71" cy="711.3" r="1.86"/><circle class="cls-1" cx="523.39" cy="711.24" r="1.86"/><polygon class="cls-1" points="368.14 719.17 335.58 807.76 408.62 807.76 373.72 719.17 368.14 719.17"/><line class="cls-1" x1="370.86" y1="719.17" x2="353.85" y2="807.76"/><line class="cls-1" x1="384.68" y1="807.76" x2="370.86" y2="719.17"/><polyline class="cls-1" points="363.49 807.76 367.92 778.5 373.41 778.5 377.07 807.76"/><line class="cls-1" x1="359.02" y1="743.98" x2="383.49" y2="743.98"/><line class="cls-1" x1="356.89" y1="749.8" x2="385.59" y2="749.8"/><line class="cls-1" x1="354.99" y1="754.96" x2="387.75" y2="754.96"/><line class="cls-1" x1="365.63" y1="708.46" x2="368.14" y2="719.17"/><line class="cls-1" x1="369.16" y1="707.9" x2="369.82" y2="719.17"/><line class="cls-1" x1="372.1" y1="708.92" x2="370.86" y2="719.17"/><line class="cls-1" x1="375.49" y1="707.97" x2="372.1" y2="719.17"/><line class="cls-1" x1="378.11" y1="710.23" x2="373.72" y2="719.17"/><path class="cls-1" d="M341,793.13s4.76,6.57,5.34,6.19,5.93-4.59,5.93-4.59l3.24,4.61,6.89-4,2.69,2.16"/><polyline class="cls-1" points="375.91 798.49 382.62 794.54 389.92 798.49 397.19 794.54 403.12 798.49 404.19 796.51"/><polygon class="cls-1" points="409.05 752.75 388.91 807.55 434.09 807.55 412.5 752.75 409.05 752.75"/><line class="cls-1" x1="410.73" y1="752.75" x2="400.21" y2="807.55"/><line class="cls-1" x1="419.28" y1="807.55" x2="410.73" y2="752.75"/><polyline class="cls-1" points="406.17 807.55 408.91 789.45 412.31 789.45 414.57 807.55"/><line class="cls-1" x1="403.41" y1="768.1" x2="418.54" y2="768.1"/><line class="cls-1" x1="402.09" y1="771.69" x2="419.84" y2="771.69"/><line class="cls-1" x1="400.91" y1="774.89" x2="421.18" y2="774.89"/><line class="cls-1" x1="407.49" y1="746.12" x2="409.05" y2="752.75"/><line class="cls-1" x1="409.68" y1="745.78" x2="410.08" y2="752.75"/><line class="cls-1" x1="411.5" y1="746.41" x2="410.73" y2="752.75"/><line class="cls-1" x1="413.59" y1="745.82" x2="411.5" y2="752.75"/><line class="cls-1" x1="415.21" y1="747.22" x2="412.5" y2="752.75"/><path class="cls-1" d="M392.23,798.5s2.95,4.06,3.3,3.83,3.67-2.84,3.67-2.84l2,2.85,4.26-2.5,1.66,1.34"/><polyline class="cls-1" points="413.85 801.81 418 799.37 422.52 801.81 427.01 799.37 430.68 801.81 431.35 800.59"/><path class="cls-1" d="M553.29,778.91c0-4.5.24-17.22.48-20s6.28-4.39,6.28,0c0,5.4-2,44.77-2,48.4,0,2.19-5.37,2.78-5.19-2.78C552.91,801.34,553.29,778.91,553.29,778.91Z"/><path class="cls-1" d="M553.23,782.49c-2.72-1.07-4.17-1.43-4.17-8.92v-9.91c0-3.62-4.59-3.14-4.71,0s-.6,13.05,0,17.4,4.13,5.07,5.81,5.31a7.55,7.55,0,0,0,2.64,0"/><path class="cls-1" d="M558.86,787.22a3.13,3.13,0,0,0,2.52,0c1.33-.61,2.3-3.69,2.18-8.31s0-7.64,0-9.57,2.77-1.7,3.13,1.93-.12,11.9-.61,16.22-3.38,3.35-5,3.35-2.45.09-2.45.09"/><path class="cls-1" d="M323.56,779.49c0-3.63.19-13.89.39-16.16s5.06-3.54,5.06,0c0,4.35-1.65,36.1-1.65,39,0,1.76-4.34,2.24-4.19-2.24C323.25,797.58,323.56,779.49,323.56,779.49Z"/><path class="cls-1" d="M323.51,782.38c-2.19-.87-3.36-1.16-3.36-7.2v-8c0-2.92-3.7-2.53-3.8,0s-.49,10.52,0,14,3.33,4.09,4.69,4.28a5.84,5.84,0,0,0,2.12,0"/><path class="cls-1" d="M328.05,786.19a2.49,2.49,0,0,0,2,0c1.08-.49,1.85-3,1.76-6.7s0-6.16,0-7.72,2.23-1.37,2.52,1.56a86.61,86.61,0,0,1-.49,13.07c-.39,3.49-2.72,2.71-4,2.71s-2,.07-2,.07"/><path class="cls-1" d="M459.7,721.51h24.22v27.12h26.71l7.86,2.69c-.62,7.87-4.55,11.59-8.28,11.59H483.72v44.51h-24v-44.3s-15.52,3.31-25.87,0-8.9-11-8.9-11L433,748h26.65Z"/><line class="cls-1" x1="459.65" y1="717.29" x2="459.65" y2="721.51"/><line class="cls-1" x1="483.93" y1="717.29" x2="483.93" y2="721.51"/><path class="cls-1" d="M467.74,721.51v-6.94c0-1,1.64-1.15,2.82-1.15h3.28c2.11,0,2.35,1.29,2.35,4v4"/><line class="cls-1" x1="459.69" y1="729.72" x2="483.92" y2="729.72"/><line class="cls-1" x1="459.69" y1="738.05" x2="483.92" y2="738.05"/><line class="cls-1" x1="459.69" y1="746.38" x2="483.92" y2="746.38"/><line class="cls-1" x1="459.65" y1="748.01" x2="459.65" y2="763.12"/><line class="cls-1" x1="451.55" y1="755.56" x2="451.55" y2="764.28"/><line class="cls-1" x1="443.34" y1="755.56" x2="443.34" y2="764.28"/><line class="cls-1" x1="435.37" y1="755.56" x2="435.37" y2="763.6"/><line class="cls-1" x1="492.49" y1="755.56" x2="492.49" y2="762.91"/><line class="cls-1" x1="500.47" y1="755.56" x2="500.47" y2="762.91"/><line class="cls-1" x1="508.68" y1="755.56" x2="508.68" y2="762.91"/><line class="cls-1" x1="465.86" y1="738.05" x2="471.96" y2="748.49"/><line class="cls-1" x1="478.06" y1="738.05" x2="471.96" y2="748.49"/><line class="cls-1" x1="465.63" y1="756.23" x2="468.91" y2="756.23"/><line class="cls-1" x1="473.61" y1="756.23" x2="477.36" y2="756.23"/><line class="cls-1" x1="467.27" y1="764.46" x2="471.14" y2="764.46"/><line class="cls-1" x1="475.48" y1="764.28" x2="479.47" y2="764.28"/><line class="cls-1" x1="459.65" y1="773.12" x2="483.72" y2="773.12"/><line class="cls-1" x1="459.65" y1="782.74" x2="483.72" y2="782.74"/><line class="cls-1" x1="467.74" y1="773.12" x2="467.74" y2="782.74"/><line class="cls-1" x1="476.19" y1="773.12" x2="476.19" y2="782.74"/><line class="cls-1" x1="459.7" y1="791.3" x2="483.22" y2="791.3"/><line class="cls-1" x1="459.7" y1="799.28" x2="483.72" y2="799.28"/><circle class="cls-1" cx="467.74" cy="731.6" r="1.47"/><circle class="cls-1" cx="476.19" cy="731.6" r="1.47"/></g></svg>