<svg xmlns="http://www.w3.org/2000/svg" viewBox="0 0 1437 844"><defs><style>.cls-1{fill:#fff;stroke:#000;stroke-miterlimit:10;}</style></defs><title>アートボード 10</title><g id="レイヤー_1" data-name="レイヤー 1"><polygon class="cls-1" points="867.15 733.12 806.28 806.4 848.51 808.88 926.15 808.88 867.15 733.12"/><line class="cls-1" x1="866.99" y1="732.96" x2="848.36" y2="808.73"/><polyline class="cls-1" points="848.36 755.74 862.17 752.57 883.53 754.15"/><line class="cls-1" x1="873.82" y1="760.91" x2="888.79" y2="760.91"/><line class="cls-1" x1="858.6" y1="767.07" x2="888.73" y2="767.12"/><line class="cls-1" x1="866.99" y1="774.88" x2="899.67" y2="774.88"/><line class="cls-1" x1="870.1" y1="769.91" x2="870.1" y2="774.88"/><line class="cls-1" x1="854.6" y1="783.33" x2="895.56" y2="783.27"/><line class="cls-1" x1="876.93" y1="776.74" x2="876.93" y2="783.27"/><line class="cls-1" x1="859.54" y1="791.96" x2="912.43" y2="791.27"/><line class="cls-1" x1="886.98" y1="783.33" x2="886.98" y2="791.27"/><line class="cls-1" x1="850.42" y1="800.33" x2="881.28" y2="800.34"/><line class="cls-1" x1="871.34" y1="800.33" x2="871.34" y2="794.44"/><line class="cls-1" x1="895.56" y1="800.34" x2="914.5" y2="800.34"/><line class="cls-1" x1="905.03" y1="800.34" x2="905.03" y2="808.73"/><line class="cls-1" x1="841.37" y1="764.15" x2="859.54" y2="763.27"/><line class="cls-1" x1="852.21" y1="763.62" x2="851.15" y2="769.91"/><line class="cls-1" x1="837.49" y1="771.78" x2="857.45" y2="771.78"/><line class="cls-1" x1="845.65" y1="771.78" x2="844.94" y2="777.68"/><line class="cls-1" x1="825.2" y1="783.62" x2="848.36" y2="784.2"/><line class="cls-1" x1="836.87" y1="776.74" x2="834.39" y2="783.58"/><line class="cls-1" x1="821.65" y1="795.38" x2="851.5" y2="795.96"/><line class="cls-1" x1="838.42" y1="789.48" x2="836.87" y2="795.67"/><line class="cls-1" x1="844.64" y1="795.96" x2="842.77" y2="804.69"/><polygon class="cls-1" points="952.73 699.74 866.22 803.9 926.25 807.43 1036.59 807.43 952.73 699.74"/><line class="cls-1" x1="952.51" y1="699.52" x2="926.02" y2="807.21"/><polyline class="cls-1" points="926.02 731.89 945.65 727.39 976.01 729.64"/><line class="cls-1" x1="962.22" y1="739.24" x2="983.49" y2="739.24"/><line class="cls-1" x1="940.58" y1="748.01" x2="983.4" y2="748.07"/><line class="cls-1" x1="952.51" y1="759.1" x2="998.95" y2="759.1"/><line class="cls-1" x1="956.92" y1="752.04" x2="956.92" y2="759.1"/><line class="cls-1" x1="934.9" y1="771.11" x2="993.11" y2="771.02"/><line class="cls-1" x1="966.63" y1="761.75" x2="966.63" y2="771.02"/><line class="cls-1" x1="941.91" y1="783.38" x2="1017.1" y2="782.41"/><line class="cls-1" x1="980.91" y1="771.11" x2="980.91" y2="782.41"/><line class="cls-1" x1="928.96" y1="795.27" x2="972.81" y2="795.3"/><line class="cls-1" x1="958.69" y1="795.27" x2="958.68" y2="786.91"/><line class="cls-1" x1="993.11" y1="795.3" x2="1020.03" y2="795.3"/><line class="cls-1" x1="1006.57" y1="795.3" x2="1006.57" y2="807.21"/><line class="cls-1" x1="916.09" y1="743.86" x2="941.91" y2="742.6"/><line class="cls-1" x1="931.5" y1="743.11" x2="930" y2="752.04"/><line class="cls-1" x1="910.58" y1="754.69" x2="938.94" y2="754.69"/><line class="cls-1" x1="922.18" y1="754.69" x2="921.17" y2="763.08"/><line class="cls-1" x1="893.11" y1="771.52" x2="926.02" y2="772.35"/><line class="cls-1" x1="909.69" y1="761.75" x2="906.16" y2="771.46"/><line class="cls-1" x1="888.07" y1="788.23" x2="930.49" y2="789.07"/><line class="cls-1" x1="911.9" y1="779.85" x2="909.69" y2="788.66"/><line class="cls-1" x1="920.74" y1="789.07" x2="918.08" y2="801.48"/><polygon class="cls-1" points="1023.15 746.56 975.41 804.04 1008.54 805.99 1069.43 805.99 1023.15 746.56"/><line class="cls-1" x1="1023.03" y1="746.44" x2="1008.42" y2="805.87"/><polyline class="cls-1" points="1008.42 764.3 1019.25 761.82 1036 763.06"/><line class="cls-1" x1="1028.39" y1="768.36" x2="1040.13" y2="768.36"/><line class="cls-1" x1="1016.45" y1="773.2" x2="1040.08" y2="773.23"/><line class="cls-1" x1="1023.03" y1="779.32" x2="1048.66" y2="779.32"/><line class="cls-1" x1="1025.47" y1="775.42" x2="1025.47" y2="779.32"/><line class="cls-1" x1="1013.32" y1="785.94" x2="1045.44" y2="785.89"/><line class="cls-1" x1="1030.83" y1="780.78" x2="1030.83" y2="785.89"/><line class="cls-1" x1="1017.19" y1="792.71" x2="1058.68" y2="792.18"/><line class="cls-1" x1="1038.71" y1="785.94" x2="1038.71" y2="792.18"/><line class="cls-1" x1="1010.04" y1="799.28" x2="1034.24" y2="799.29"/><line class="cls-1" x1="1026.44" y1="799.28" x2="1026.44" y2="794.66"/><line class="cls-1" x1="1045.44" y1="799.29" x2="1060.3" y2="799.29"/><line class="cls-1" x1="1052.87" y1="799.29" x2="1052.87" y2="805.87"/><line class="cls-1" x1="1002.93" y1="770.9" x2="1017.19" y2="770.21"/><line class="cls-1" x1="1011.44" y1="770.49" x2="1010.61" y2="775.42"/><line class="cls-1" x1="999.89" y1="776.88" x2="1015.55" y2="776.88"/><line class="cls-1" x1="1006.29" y1="776.88" x2="1005.74" y2="781.51"/><line class="cls-1" x1="990.26" y1="786.17" x2="1008.42" y2="786.62"/><line class="cls-1" x1="999.41" y1="780.78" x2="997.46" y2="786.14"/><line class="cls-1" x1="987.47" y1="795.39" x2="1010.88" y2="795.85"/><line class="cls-1" x1="1000.62" y1="790.77" x2="999.41" y2="795.63"/><line class="cls-1" x1="1005.5" y1="795.85" x2="1004.03" y2="802.7"/><path class="cls-1" d="M680.42,807.33H718l.45-24.25h-5.49c-5.49-8.24-21-9.15-27.45,0h-4.58Z"/><path class="cls-1" d="M683,793.15h3.66v-3.7a2.17,2.17,0,0,0-.55-1.51c-.95-1-1.61-1-2.56,0a2.22,2.22,0,0,0-.55,1.51Z"/><path class="cls-1" d="M697.58,793.15h3.66v-3.7a2.17,2.17,0,0,0-.55-1.51c-1-1-1.61-1-2.56,0a2.22,2.22,0,0,0-.55,1.51Z"/><path class="cls-1" d="M696.88,807.33H702v-5.12a3,3,0,0,0-.77-2.09c-1.31-1.36-2.22-1.36-3.54,0a3,3,0,0,0-.76,2.09Z"/><path class="cls-1" d="M710.84,793.15h3.66v-3.7a2.17,2.17,0,0,0-.55-1.51c-1-1-1.61-1-2.56,0a2.22,2.22,0,0,0-.55,1.51Z"/><line class="cls-1" x1="683.26" y1="798" x2="686.61" y2="798"/><line class="cls-1" x1="688.82" y1="798" x2="692.17" y2="798"/><line class="cls-1" x1="706.13" y1="798" x2="709.48" y2="798"/><line class="cls-1" x1="711.99" y1="798" x2="715.34" y2="798"/><path class="cls-1" d="M618.58,790.71h2.26v-2.29a1.36,1.36,0,0,0-.34-.93c-.58-.61-1-.61-1.58,0a1.36,1.36,0,0,0-.34.93Z"/><path class="cls-1" d="M623.12,790.71h2.27v-2.29a1.36,1.36,0,0,0-.34-.93c-.59-.61-1-.61-1.59,0a1.36,1.36,0,0,0-.34.93Z"/><path class="cls-1" d="M629.83,790.71h2.27v-2.29a1.36,1.36,0,0,0-.34-.93c-.59-.61-1-.61-1.59,0a1.36,1.36,0,0,0-.34.93Z"/><path class="cls-1" d="M634.15,790.71h2.27v-2.29a1.36,1.36,0,0,0-.34-.93c-.59-.61-1-.61-1.59,0a1.36,1.36,0,0,0-.34.93Z"/><path class="cls-1" d="M640.11,790.71h2.26v-2.29a1.36,1.36,0,0,0-.34-.93c-.59-.61-1-.61-1.58,0a1.36,1.36,0,0,0-.34.93Z"/><path class="cls-1" d="M644.73,790.71H647v-2.29a1.36,1.36,0,0,0-.34-.93c-.59-.61-1-.61-1.58,0a1.36,1.36,0,0,0-.34.93Z"/><path class="cls-1" d="M649.1,806.87H654v-4.93a2.93,2.93,0,0,0-.73-2c-1.26-1.31-2.13-1.31-3.39,0a2.93,2.93,0,0,0-.73,2Z"/><path class="cls-1" d="M616,782.36h40.35s.42,24.95,0,24.95H616Z"/><line class="cls-1" x1="634.15" y1="799.23" x2="637.84" y2="799.23"/><line class="cls-1" x1="640.11" y1="799.23" x2="643.8" y2="799.23"/><path class="cls-1" d="M751.13,735.6c-3.76,3.28-6.13,8.33-9,12.43q-3.37,4.88-6.79,9.73a15,15,0,0,1,4.23,6c1.15,3.46,2.62,9.54.47,12s-4.7,4.45-4.7,15.81v10.75h57.36V782.63c0-6-4.45-7.22-5.07-7.52a44.26,44.26,0,0,1,5.07-17.35q-3.62-6.39-7.6-12.56c-2.83-4.37-5.26-10.41-10.45-12-6.36-1.94-12.85-1.9-17.08-.68A17,17,0,0,0,751.13,735.6Z"/><path class="cls-1" d="M751.13,735.6s.69,24.41,2.64,26,16.08,3.73,21,0c1.62-1.63,3.41-26.48,3.41-26.48"/><path class="cls-1" d="M760.27,732s-.82,6.43,0,7.06,7.79.46,8.28,0,0-7.06,0-7.06"/><path class="cls-1" d="M756,762.54s-.07,7.38-8.68,9.82-7.19,3.36-7.19,3.36"/><path class="cls-1" d="M773.12,762.54s1.61,8,9.24,10.31,5.31,2.26,5.31,2.26"/><rect class="cls-1" x="729.08" y="791.53" width="28.3" height="15.6" rx="5.93"/><rect class="cls-1" x="770.56" y="791.53" width="28.3" height="15.6" rx="5.93"/><path class="cls-1" d="M515,808.16h87.93l-.83-13.42-6.39-1.23-1.66-26.63-6.81-1.24-2.06-23.12-5.16-1-.42-20.23-5.77-1-.62-17.13L569.91,701s.21-10.32-.41-14.86-15.27-6.19-15.48,0-1.24,18.17-1.24,18.17l-6.19,4.33-1.24,16.51-5.78,3.51-1.44,18.79-5.78,4.74-1.86,21.26-6.61,3.1-2.27,27.25Z"/><line class="cls-1" x1="521.61" y1="803.83" x2="602.11" y2="794.74"/><path class="cls-1" d="M522,799.28s59-9.92,73.48-9.71"/><path class="cls-1" d="M530.49,773.48s31.37-9.08,56.76-7.84"/><path class="cls-1" d="M530.84,769.51s27.22-9.28,56.06-7.81"/><path class="cls-1" d="M538.13,747.48s13.21-7.23,41.9-6"/><path class="cls-1" d="M538.13,743.34s13.21-7.22,41.9-6"/><path class="cls-1" d="M545.35,725.18s6.4-6.39,28.49-4.95"/><path class="cls-1" d="M545.35,721.06s6.4-6.4,28.49-4.95"/><path class="cls-1" d="M552.78,704.34s2.27-3.31,17.13-3.31"/><path class="cls-1" d="M552.78,701.48s2.27-3.3,17.13-3.3"/><line class="cls-1" x1="557.02" y1="685.86" x2="557.02" y2="690.18"/><line class="cls-1" x1="564.71" y1="685.86" x2="564.71" y2="690.18"/><path class="cls-1" d="M447.56,742.17h18.19v20.36H485.8l5.91,2c-.47,5.91-3.42,8.71-6.22,8.71h-19.9v33.42h-18V773.41s-11.66,2.49-19.43,0-6.69-8.24-6.69-8.24l6.06-3.11h20Z"/><line class="cls-1" x1="447.52" y1="739" x2="447.52" y2="742.17"/><line class="cls-1" x1="465.75" y1="739" x2="465.75" y2="742.17"/><path class="cls-1" d="M453.59,742.17V737c0-.78,1.24-.87,2.12-.87h2.46c1.59,0,1.77,1,1.77,3v3"/><line class="cls-1" x1="447.54" y1="748.33" x2="465.75" y2="748.33"/><line class="cls-1" x1="447.54" y1="754.59" x2="465.75" y2="754.59"/><line class="cls-1" x1="447.54" y1="760.84" x2="465.75" y2="760.84"/><line class="cls-1" x1="447.52" y1="762.06" x2="447.52" y2="773.41"/><line class="cls-1" x1="441.44" y1="767.74" x2="441.44" y2="774.29"/><line class="cls-1" x1="435.27" y1="767.74" x2="435.27" y2="774.29"/><line class="cls-1" x1="429.28" y1="767.74" x2="429.28" y2="773.78"/><line class="cls-1" x1="472.18" y1="767.74" x2="472.18" y2="773.26"/><line class="cls-1" x1="478.17" y1="767.74" x2="478.17" y2="773.26"/><line class="cls-1" x1="484.34" y1="767.74" x2="484.34" y2="773.26"/><line class="cls-1" x1="452.18" y1="754.59" x2="456.77" y2="762.43"/><line class="cls-1" x1="461.35" y1="754.59" x2="456.77" y2="762.43"/><line class="cls-1" x1="452.01" y1="768.24" x2="454.47" y2="768.24"/><line class="cls-1" x1="458" y1="768.24" x2="460.82" y2="768.24"/><line class="cls-1" x1="453.24" y1="774.42" x2="456.15" y2="774.42"/><line class="cls-1" x1="459.41" y1="774.29" x2="462.4" y2="774.29"/><line class="cls-1" x1="447.52" y1="780.93" x2="465.59" y2="780.93"/><line class="cls-1" x1="447.52" y1="788.15" x2="465.59" y2="788.15"/><line class="cls-1" x1="453.59" y1="780.93" x2="453.59" y2="788.15"/><line class="cls-1" x1="459.94" y1="780.93" x2="459.94" y2="788.15"/><line class="cls-1" x1="447.56" y1="794.58" x2="465.22" y2="794.58"/><line class="cls-1" x1="447.56" y1="800.57" x2="465.59" y2="800.57"/><circle class="cls-1" cx="453.59" cy="749.74" r="1.1"/><circle class="cls-1" cx="459.94" cy="749.74" r="1.1"/><polygon class="cls-1" points="350.28 755.88 331.14 807.95 374.08 807.95 353.56 755.88 350.28 755.88"/><line class="cls-1" x1="351.88" y1="755.88" x2="341.88" y2="807.95"/><line class="cls-1" x1="360" y1="807.95" x2="351.88" y2="755.88"/><polyline class="cls-1" points="347.55 807.95 350.15 790.75 353.38 790.75 355.53 807.95"/><line class="cls-1" x1="344.92" y1="770.46" x2="359.3" y2="770.46"/><line class="cls-1" x1="343.66" y1="773.88" x2="360.54" y2="773.88"/><line class="cls-1" x1="342.55" y1="776.92" x2="361.81" y2="776.92"/><line class="cls-1" x1="348.8" y1="749.58" x2="350.28" y2="755.88"/><line class="cls-1" x1="350.88" y1="749.25" x2="351.26" y2="755.88"/><line class="cls-1" x1="352.61" y1="749.85" x2="351.88" y2="755.88"/><line class="cls-1" x1="354.6" y1="749.29" x2="352.61" y2="755.88"/><line class="cls-1" x1="356.14" y1="750.62" x2="353.56" y2="755.88"/><path class="cls-1" d="M334.3,799.35s2.8,3.87,3.14,3.64,3.48-2.7,3.48-2.7l1.91,2.71,4.05-2.37,1.58,1.27"/><polyline class="cls-1" points="354.85 802.5 358.79 800.18 363.08 802.5 367.35 800.18 370.84 802.5 371.47 801.34"/><path class="cls-1" d="M499.15,787.15c0-3.1.17-11.87.33-13.81s4.34-3,4.34,0c0,3.72-1.42,30.86-1.42,33.37,0,1.51-3.71,1.91-3.58-1.92C498.89,802.62,499.15,787.15,499.15,787.15Z"/><path class="cls-1" d="M499.11,789.62c-1.87-.74-2.87-1-2.87-6.15v-6.83c0-2.5-3.17-2.16-3.25,0s-.42,9,0,12a4.18,4.18,0,0,0,4,3.67,5.06,5.06,0,0,0,1.82,0"/><path class="cls-1" d="M503,792.88a2.14,2.14,0,0,0,1.74,0c.92-.41,1.58-2.54,1.5-5.73s0-5.26,0-6.59,1.91-1.18,2.16,1.33a74.32,74.32,0,0,1-.42,11.18c-.33,3-2.33,2.31-3.42,2.31s-1.69.06-1.69.06"/><path class="cls-1" d="M1110.84,786.34c0-2.56.14-9.8.28-11.41s3.57-2.5,3.57,0c0,3.07-1.17,25.48-1.17,27.55,0,1.24-3,1.58-3-1.58C1110.63,799.1,1110.84,786.34,1110.84,786.34Z"/><path class="cls-1" d="M1110.81,788.38c-1.55-.61-2.37-.82-2.37-5.08v-5.64a1.34,1.34,0,1,0-2.68,0,77.66,77.66,0,0,0,0,9.9,3.45,3.45,0,0,0,3.3,3,4.56,4.56,0,0,0,1.51,0"/><path class="cls-1" d="M1114,791.07a1.77,1.77,0,0,0,1.43,0c.76-.35,1.31-2.1,1.24-4.73s0-4.35,0-5.45,1.58-1,1.78,1.1a59.89,59.89,0,0,1-.34,9.23c-.27,2.46-1.92,1.91-2.82,1.91s-1.39,0-1.39,0"/><path class="cls-1" d="M666.59,795.66c0-2.07.11-7.94.22-9.24s2.9-2,2.9,0c0,2.49-1,20.66-1,22.33,0,1-2.48,1.29-2.4-1.28C666.41,806,666.59,795.66,666.59,795.66Z"/><path class="cls-1" d="M666.56,797.32c-1.26-.5-1.92-.66-1.92-4.12v-4.57a1.09,1.09,0,1,0-2.18,0,65,65,0,0,0,0,8,2.8,2.8,0,0,0,2.68,2.45,3.51,3.51,0,0,0,1.22,0"/><path class="cls-1" d="M669.16,799.5a1.42,1.42,0,0,0,1.16,0c.61-.28,1.06-1.7,1-3.84s0-3.52,0-4.41,1.28-.79,1.44.89a49.39,49.39,0,0,1-.27,7.48c-.23,2-1.57,1.55-2.29,1.55s-1.13,0-1.13,0"/><polygon class="cls-1" points="375.09 775.62 363.25 807.83 389.81 807.83 377.12 775.62 375.09 775.62"/><line class="cls-1" x1="376.08" y1="775.62" x2="369.9" y2="807.83"/><line class="cls-1" x1="381.11" y1="807.83" x2="376.08" y2="775.62"/><polyline class="cls-1" points="373.4 807.83 375.01 797.19 377.01 797.19 378.34 807.83"/><line class="cls-1" x1="371.78" y1="784.64" x2="380.67" y2="784.64"/><line class="cls-1" x1="371" y1="786.75" x2="381.44" y2="786.75"/><line class="cls-1" x1="370.31" y1="788.63" x2="382.22" y2="788.63"/><line class="cls-1" x1="374.18" y1="771.72" x2="375.09" y2="775.62"/><line class="cls-1" x1="375.46" y1="771.52" x2="375.7" y2="775.62"/><line class="cls-1" x1="376.53" y1="771.89" x2="376.08" y2="775.62"/><line class="cls-1" x1="377.76" y1="771.54" x2="376.53" y2="775.62"/><line class="cls-1" x1="378.72" y1="772.36" x2="377.12" y2="775.62"/><path class="cls-1" d="M365.21,802.51s1.73,2.39,1.94,2.25,2.15-1.67,2.15-1.67l1.18,1.68L373,803.3l1,.79"/><polyline class="cls-1" points="377.92 804.46 380.36 803.02 383.01 804.46 385.65 803.02 387.81 804.46 388.2 803.74"/><path class="cls-1" d="M479.7,795c0-2.07.11-7.95.23-9.25s2.89-2,2.89,0c0,2.49-.94,20.66-.94,22.34,0,1-2.48,1.28-2.4-1.28C479.53,805.38,479.7,795,479.7,795Z"/><path class="cls-1" d="M479.67,796.68c-1.25-.49-1.92-.66-1.92-4.11V788a1.09,1.09,0,1,0-2.17,0,63.11,63.11,0,0,0,0,8,2.78,2.78,0,0,0,2.68,2.45,3.24,3.24,0,0,0,1.22,0"/><path class="cls-1" d="M482.27,798.86a1.44,1.44,0,0,0,1.17,0c.61-.27,1.06-1.7,1-3.83s0-3.52,0-4.42,1.27-.78,1.44.89a49.54,49.54,0,0,1-.28,7.49c-.22,2-1.56,1.55-2.28,1.55s-1.14,0-1.14,0"/><path class="cls-1" d="M321.41,790.75c0-2.07.11-7.94.22-9.24s2.9-2,2.9,0c0,2.49-.95,20.65-.95,22.33,0,1-2.48,1.28-2.39-1.28C321.24,801.1,321.41,790.75,321.41,790.75Z"/><path class="cls-1" d="M321.38,792.41c-1.25-.5-1.92-.67-1.92-4.12v-4.57a1.09,1.09,0,1,0-2.17,0,63,63,0,0,0,0,8A2.79,2.79,0,0,0,320,794.2a3.53,3.53,0,0,0,1.22,0"/><path class="cls-1" d="M324,794.59a1.44,1.44,0,0,0,1.17,0c.61-.28,1.05-1.71,1-3.84s0-3.52,0-4.41,1.28-.79,1.45.89a49.46,49.46,0,0,1-.28,7.48c-.22,2-1.56,1.55-2.29,1.55s-1.13,0-1.13,0"/><path class="cls-1" d="M1087.09,781.88c0-3.71.2-14.21.4-16.54s5.18-3.62,5.18,0c0,4.46-1.7,36.94-1.7,39.94,0,1.81-4.43,2.29-4.28-2.29C1086.77,800.39,1087.09,781.88,1087.09,781.88Z"/><path class="cls-1" d="M1087,784.83c-2.25-.88-3.44-1.18-3.44-7.36V769.3c0-3-3.79-2.59-3.89,0s-.5,10.76,0,14.35,3.41,4.19,4.8,4.39a6.12,6.12,0,0,0,2.17,0"/><path class="cls-1" d="M1091.69,788.73a2.56,2.56,0,0,0,2.08,0c1.09-.49,1.89-3,1.79-6.85s0-6.3,0-7.9,2.28-1.4,2.58,1.59a88.27,88.27,0,0,1-.5,13.39c-.4,3.56-2.79,2.76-4.08,2.76s-2,.08-2,.08"/><path class="cls-1" d="M405.32,768.45h9.91v11.08h10.92l3.21,1.11c-.25,3.21-1.86,4.74-3.38,4.74H415.14v18.2h-9.82V785.46s-6.35,1.35-10.58,0S391.1,781,391.1,781l3.3-1.69h10.9Z"/><line class="cls-1" x1="405.3" y1="766.72" x2="405.3" y2="768.45"/><line class="cls-1" x1="415.23" y1="766.72" x2="415.23" y2="768.45"/><path class="cls-1" d="M408.61,768.45v-2.84c0-.43.67-.47,1.15-.47h1.34c.87,0,1,.52,1,1.65v1.66"/><line class="cls-1" x1="405.31" y1="771.8" x2="415.23" y2="771.8"/><line class="cls-1" x1="405.31" y1="775.21" x2="415.23" y2="775.21"/><line class="cls-1" x1="405.31" y1="778.61" x2="415.23" y2="778.61"/><line class="cls-1" x1="405.3" y1="779.28" x2="405.3" y2="785.46"/><line class="cls-1" x1="401.99" y1="782.37" x2="401.99" y2="785.94"/><line class="cls-1" x1="398.63" y1="782.37" x2="398.63" y2="785.94"/><line class="cls-1" x1="395.37" y1="782.37" x2="395.37" y2="785.66"/><line class="cls-1" x1="418.73" y1="782.37" x2="418.73" y2="785.38"/><line class="cls-1" x1="421.99" y1="782.37" x2="421.99" y2="785.38"/><line class="cls-1" x1="425.35" y1="782.37" x2="425.35" y2="785.38"/><line class="cls-1" x1="407.84" y1="775.21" x2="410.34" y2="779.48"/><line class="cls-1" x1="412.83" y1="775.21" x2="410.34" y2="779.48"/><line class="cls-1" x1="407.74" y1="782.64" x2="409.09" y2="782.64"/><line class="cls-1" x1="411.01" y1="782.64" x2="412.54" y2="782.64"/><line class="cls-1" x1="408.42" y1="786.01" x2="410" y2="786.01"/><line class="cls-1" x1="411.77" y1="785.94" x2="413.4" y2="785.94"/><line class="cls-1" x1="405.3" y1="789.55" x2="415.14" y2="789.55"/><line class="cls-1" x1="405.3" y1="793.48" x2="415.14" y2="793.48"/><line class="cls-1" x1="408.61" y1="789.55" x2="408.61" y2="793.48"/><line class="cls-1" x1="412.06" y1="789.55" x2="412.06" y2="793.48"/><line class="cls-1" x1="405.32" y1="796.99" x2="414.94" y2="796.99"/><line class="cls-1" x1="405.32" y1="800.25" x2="415.14" y2="800.25"/><circle class="cls-1" cx="408.61" cy="772.57" r="0.6"/><circle class="cls-1" cx="412.06" cy="772.57" r="0.6"/></g></svg>