<svg xmlns="http://www.w3.org/2000/svg" viewBox="0 0 1438 665" width="1438" height="665"><defs><style>.cls-1{fill:#fff;stroke:#000;stroke-miterlimit:10;}</style></defs><title>アートボード 8</title><g id="レイヤー_1" data-name="レイヤー 1"><polygon class="cls-1" points="931.35 538.84 835.42 654.35 901.99 658.26 1024.35 658.26 931.35 538.84"/><line class="cls-1" x1="931.11" y1="538.59" x2="901.74" y2="658.02"/><polyline class="cls-1" points="901.74 574.49 923.51 569.5 957.17 572"/><line class="cls-1" x1="941.88" y1="582.64" x2="965.46" y2="582.64"/><line class="cls-1" x1="917.89" y1="592.37" x2="965.37" y2="592.43"/><line class="cls-1" x1="931.11" y1="604.67" x2="982.61" y2="604.67"/><line class="cls-1" x1="936" y1="596.84" x2="936" y2="604.67"/><line class="cls-1" x1="911.59" y1="617.99" x2="976.14" y2="617.88"/><line class="cls-1" x1="946.77" y1="607.61" x2="946.77" y2="617.88"/><line class="cls-1" x1="919.36" y1="631.59" x2="1002.73" y2="630.51"/><line class="cls-1" x1="962.61" y1="617.99" x2="962.61" y2="630.51"/><line class="cls-1" x1="905" y1="644.78" x2="953.62" y2="644.8"/><line class="cls-1" x1="937.97" y1="644.78" x2="937.96" y2="635.5"/><line class="cls-1" x1="976.14" y1="644.8" x2="1005.99" y2="644.8"/><line class="cls-1" x1="991.07" y1="644.8" x2="991.07" y2="658.02"/><line class="cls-1" x1="890.72" y1="587.76" x2="919.36" y2="586.36"/><line class="cls-1" x1="907.82" y1="586.93" x2="906.15" y2="596.84"/><line class="cls-1" x1="884.61" y1="599.77" x2="916.06" y2="599.77"/><line class="cls-1" x1="897.48" y1="599.77" x2="896.36" y2="609.07"/><line class="cls-1" x1="865.24" y1="618.44" x2="901.74" y2="619.35"/><line class="cls-1" x1="883.63" y1="607.61" x2="879.72" y2="618.37"/><line class="cls-1" x1="859.65" y1="636.97" x2="906.69" y2="637.89"/><line class="cls-1" x1="886.08" y1="627.67" x2="883.63" y2="637.44"/><line class="cls-1" x1="895.89" y1="637.89" x2="892.93" y2="651.66"/><polygon class="cls-1" points="1066.24 486.24 929.89 650.41 1024.5 655.98 1198.42 655.98 1066.24 486.24"/><line class="cls-1" x1="1065.89" y1="485.89" x2="1024.15" y2="655.63"/><polyline class="cls-1" points="1024.15 536.91 1055.09 529.82 1102.94 533.36"/><line class="cls-1" x1="1081.2" y1="548.5" x2="1114.73" y2="548.5"/><line class="cls-1" x1="1047.1" y1="562.31" x2="1114.59" y2="562.41"/><line class="cls-1" x1="1065.89" y1="579.8" x2="1139.1" y2="579.8"/><line class="cls-1" x1="1072.85" y1="568.67" x2="1072.85" y2="579.8"/><line class="cls-1" x1="1038.15" y1="598.73" x2="1129.9" y2="598.59"/><line class="cls-1" x1="1088.16" y1="583.98" x2="1088.16" y2="598.59"/><line class="cls-1" x1="1049.2" y1="618.06" x2="1167.7" y2="616.53"/><line class="cls-1" x1="1110.67" y1="598.73" x2="1110.67" y2="616.53"/><line class="cls-1" x1="1028.78" y1="636.81" x2="1097.9" y2="636.85"/><line class="cls-1" x1="1075.64" y1="636.81" x2="1075.63" y2="623.63"/><line class="cls-1" x1="1129.9" y1="636.85" x2="1172.33" y2="636.85"/><line class="cls-1" x1="1151.11" y1="636.85" x2="1151.11" y2="655.63"/><line class="cls-1" x1="1008.49" y1="555.77" x2="1049.2" y2="553.78"/><line class="cls-1" x1="1032.79" y1="554.59" x2="1030.42" y2="568.67"/><line class="cls-1" x1="999.81" y1="572.85" x2="1044.51" y2="572.85"/><line class="cls-1" x1="1018.09" y1="572.85" x2="1016.5" y2="586.06"/><line class="cls-1" x1="972.28" y1="599.38" x2="1024.15" y2="600.67"/><line class="cls-1" x1="998.41" y1="583.98" x2="992.85" y2="599.28"/><line class="cls-1" x1="964.33" y1="625.72" x2="1031.19" y2="627.03"/><line class="cls-1" x1="1001.89" y1="612.5" x2="998.41" y2="626.38"/><line class="cls-1" x1="1015.83" y1="627.03" x2="1011.63" y2="646.59"/><polygon class="cls-1" points="1177.25 560.03 1102 650.63 1154.21 653.7 1250.19 653.7 1177.25 560.03"/><line class="cls-1" x1="1177.06" y1="559.84" x2="1154.02" y2="653.51"/><polyline class="cls-1" points="1154.02 587.99 1171.1 584.08 1197.5 586.03"/><line class="cls-1" x1="1185.5" y1="594.39" x2="1204" y2="594.39"/><line class="cls-1" x1="1166.68" y1="602.01" x2="1203.93" y2="602.06"/><line class="cls-1" x1="1177.06" y1="611.66" x2="1217.46" y2="611.66"/><line class="cls-1" x1="1180.9" y1="605.52" x2="1180.9" y2="611.66"/><line class="cls-1" x1="1161.74" y1="622.11" x2="1212.37" y2="622.03"/><line class="cls-1" x1="1189.34" y1="613.97" x2="1189.34" y2="622.03"/><line class="cls-1" x1="1167.84" y1="632.78" x2="1233.24" y2="631.93"/><line class="cls-1" x1="1201.76" y1="622.11" x2="1201.76" y2="631.93"/><line class="cls-1" x1="1156.58" y1="643.12" x2="1194.72" y2="643.14"/><line class="cls-1" x1="1182.43" y1="643.12" x2="1182.43" y2="635.85"/><line class="cls-1" x1="1212.37" y1="643.14" x2="1235.79" y2="643.14"/><line class="cls-1" x1="1224.08" y1="643.14" x2="1224.08" y2="653.51"/><line class="cls-1" x1="1145.38" y1="598.4" x2="1167.84" y2="597.3"/><line class="cls-1" x1="1158.79" y1="597.75" x2="1157.48" y2="605.52"/><line class="cls-1" x1="1140.59" y1="607.82" x2="1165.26" y2="607.82"/><line class="cls-1" x1="1150.68" y1="607.82" x2="1149.8" y2="615.12"/><line class="cls-1" x1="1125.39" y1="622.46" x2="1154.02" y2="623.18"/><line class="cls-1" x1="1139.82" y1="613.97" x2="1136.75" y2="622.41"/><line class="cls-1" x1="1121.01" y1="637" x2="1157.9" y2="637.72"/><line class="cls-1" x1="1141.74" y1="629.71" x2="1139.82" y2="637.37"/><line class="cls-1" x1="1149.43" y1="637.72" x2="1147.11" y2="648.52"/><path class="cls-1" d="M607.9,655.82H667l.72-38.23h-8.65c-8.66-13-33.18-14.42-43.28,0h-7.21Z"/><path class="cls-1" d="M611.88,633.46h5.77v-5.83a3.46,3.46,0,0,0-.86-2.38c-1.5-1.55-2.54-1.55-4,0a3.46,3.46,0,0,0-.87,2.38Z"/><path class="cls-1" d="M635,633.46h5.77v-5.83a3.46,3.46,0,0,0-.87-2.38c-1.5-1.55-2.54-1.55-4,0a3.46,3.46,0,0,0-.86,2.38Z"/><path class="cls-1" d="M633.84,655.82h8v-8.08a4.75,4.75,0,0,0-1.2-3.29c-2.07-2.15-3.51-2.15-5.58,0a4.75,4.75,0,0,0-1.2,3.29Z"/><path class="cls-1" d="M655.84,633.46h5.77v-5.83a3.42,3.42,0,0,0-.87-2.38c-1.49-1.55-2.53-1.55-4,0a3.46,3.46,0,0,0-.87,2.38Z"/><line class="cls-1" x1="612.37" y1="641.12" x2="617.65" y2="641.12"/><line class="cls-1" x1="621.13" y1="641.12" x2="626.41" y2="641.12"/><line class="cls-1" x1="648.41" y1="641.12" x2="653.7" y2="641.12"/><line class="cls-1" x1="657.66" y1="641.12" x2="662.94" y2="641.12"/><polygon class="cls-1" points="1265.22 630.12 1291.53 630.12 1291.53 618.19 1332.67 618.19 1332.67 629.5 1360.04 629.5 1360.04 658.41 1265.22 658.41 1265.22 630.12"/><path class="cls-1" d="M1296,633.37h5.19v-5.24a3.14,3.14,0,0,0-.78-2.14c-1.35-1.39-2.28-1.39-3.63,0a3.14,3.14,0,0,0-.78,2.14Z"/><path class="cls-1" d="M1304.26,633.37h5.18v-5.24a3.1,3.1,0,0,0-.78-2.14c-1.34-1.39-2.28-1.39-3.62,0a3.14,3.14,0,0,0-.78,2.14Z"/><path class="cls-1" d="M1315.31,633.37h5.18v-5.24a3.1,3.1,0,0,0-.78-2.14c-1.34-1.39-2.28-1.39-3.62,0a3.1,3.1,0,0,0-.78,2.14Z"/><path class="cls-1" d="M1324.36,633.42h5v-5.3a3.23,3.23,0,0,0-.76-2.16c-1.3-1.41-2.2-1.41-3.5,0a3.28,3.28,0,0,0-.75,2.16Z"/><path class="cls-1" d="M1308.23,657.29h10.07v-8.94a4.94,4.94,0,0,0-1.52-3.65c-2.61-2.37-4.42-2.37-7,0a4.94,4.94,0,0,0-1.52,3.65Z"/><path class="cls-1" d="M1275.62,657.29h8.55v-7.6a4.19,4.19,0,0,0-1.29-3.09c-2.22-2-3.76-2-6,0a4.18,4.18,0,0,0-1.28,3.09Z"/><path class="cls-1" d="M1343.05,657.4h7.67v-6.81a3.76,3.76,0,0,0-1.15-2.78c-2-1.81-3.37-1.81-5.36,0a3.76,3.76,0,0,0-1.16,2.78Z"/><path class="cls-1" d="M510.43,629.62H514V626a2.09,2.09,0,0,0-.54-1.47c-.92-1-1.56-1-2.49,0a2.13,2.13,0,0,0-.53,1.47Z"/><path class="cls-1" d="M517.59,629.62h3.56V626a2.09,2.09,0,0,0-.54-1.47c-.92-1-1.56-1-2.49,0a2.13,2.13,0,0,0-.53,1.47Z"/><path class="cls-1" d="M528.16,629.62h3.57V626a2.09,2.09,0,0,0-.54-1.47c-.92-1-1.57-1-2.49,0a2.09,2.09,0,0,0-.54,1.47Z"/><path class="cls-1" d="M535,629.62h3.57V626a2.09,2.09,0,0,0-.54-1.47c-.92-1-1.57-1-2.49,0A2.09,2.09,0,0,0,535,626Z"/><path class="cls-1" d="M544.35,629.62h3.57V626a2.09,2.09,0,0,0-.54-1.47c-.92-1-1.57-1-2.49,0a2.09,2.09,0,0,0-.54,1.47Z"/><path class="cls-1" d="M551.64,629.62h3.56V626a2.13,2.13,0,0,0-.53-1.47c-.93-1-1.57-1-2.49,0a2.09,2.09,0,0,0-.54,1.47Z"/><path class="cls-1" d="M558.53,655.09h7.64v-7.77a4.62,4.62,0,0,0-1.15-3.17c-2-2.07-3.36-2.07-5.34,0a4.57,4.57,0,0,0-1.15,3.17Z"/><path class="cls-1" d="M506.34,616.46h63.59s.67,39.31,0,39.31H506.34Z"/><line class="cls-1" x1="534.97" y1="643.04" x2="540.79" y2="643.04"/><line class="cls-1" x1="544.35" y1="643.04" x2="550.18" y2="643.04"/><path class="cls-1" d="M745.06,542.76c-5.92,5.16-9.65,13.13-14.12,19.59q-5.33,7.68-10.7,15.33s4.84,4,6.66,9.42,4.14,15,.75,18.89-7.41,7-7.41,24.93v16.94h90.41v-31c0-9.43-7-11.37-8-11.85a69.87,69.87,0,0,1,8-27.35q-5.7-10.06-12-19.79c-4.45-6.89-8.28-16.41-16.46-18.9-10-3.06-20.26-3-26.92-1.07C751.56,539,747.85,540.33,745.06,542.76Z"/><path class="cls-1" d="M745.06,542.76s1.09,38.48,4.16,41,25.35,5.89,33,0c2.57-2.56,5.38-41.74,5.38-41.74"/><path class="cls-1" d="M759.46,537.12s-1.28,10.13,0,11.11,12.3.74,13.06,0,0-11.11,0-11.11"/><path class="cls-1" d="M752.65,585.22s-.1,11.64-13.67,15.48S727.65,606,727.65,606"/><path class="cls-1" d="M779.72,585.22s2.53,12.66,14.57,16.24,8.37,3.57,8.37,3.57"/><rect class="cls-1" x="710.3" y="630.91" width="44.6" height="24.58" rx="12.29"/><rect class="cls-1" x="775.69" y="630.91" width="44.6" height="24.58" rx="12.29"/><path class="cls-1" d="M347.18,657.13H485.77L484.47,636,474.38,634l-2.6-42-10.73-1.95-3.26-36.44L449.66,552,449,520.16l-9.11-1.63-1-27-5.2-3.26s.32-16.26-.65-23.42-24.08-9.76-24.4,0-2,28.63-2,28.63L397,500.31l-1.95,26-9.11,5.53-2.28,29.61L374.5,569l-2.92,33.51-10.41,4.88-3.58,42.94Z"/><line class="cls-1" x1="357.59" y1="650.29" x2="484.47" y2="635.97"/><path class="cls-1" d="M358.18,643.13s93-15.64,115.82-15.3"/><path class="cls-1" d="M371.58,602.47s49.45-14.32,89.47-12.36"/><path class="cls-1" d="M372.12,596.2s42.92-14.63,88.37-12.31"/><path class="cls-1" d="M383.61,561.48s20.83-11.39,66.05-9.44"/><path class="cls-1" d="M383.61,555s20.83-11.39,66.05-9.44"/><path class="cls-1" d="M395,526.34s10.09-10.09,44.9-7.81"/><path class="cls-1" d="M395,519.84s10.09-10.09,44.9-7.81"/><path class="cls-1" d="M406.71,493.48s3.58-5.21,27-5.21"/><path class="cls-1" d="M406.71,489s3.58-5.21,27-5.21"/><line class="cls-1" x1="413.4" y1="464.35" x2="413.4" y2="471.17"/><line class="cls-1" x1="425.51" y1="464.35" x2="425.51" y2="471.17"/><path class="cls-1" d="M240.86,553.1h28.67v32.1h31.61l9.31,3.19c-.73,9.31-5.39,13.72-9.8,13.72H269.29v52.68H240.86V602.35s-18.37,3.92-30.62,0-10.54-13-10.54-13l9.56-4.9H240.8Z"/><line class="cls-1" x1="240.8" y1="548.11" x2="240.8" y2="553.1"/><line class="cls-1" x1="269.54" y1="548.11" x2="269.54" y2="553.1"/><path class="cls-1" d="M250.38,553.1v-8.21c0-1.23,1.94-1.36,3.33-1.36h3.89c2.5,0,2.77,1.52,2.77,4.78v4.79"/><line class="cls-1" x1="240.84" y1="562.82" x2="269.53" y2="562.82"/><line class="cls-1" x1="240.84" y1="572.68" x2="269.53" y2="572.68"/><line class="cls-1" x1="240.84" y1="582.54" x2="269.53" y2="582.54"/><line class="cls-1" x1="240.8" y1="584.47" x2="240.8" y2="602.35"/><line class="cls-1" x1="231.22" y1="593.41" x2="231.22" y2="603.73"/><line class="cls-1" x1="221.5" y1="593.41" x2="221.5" y2="603.73"/><line class="cls-1" x1="212.06" y1="593.41" x2="212.06" y2="602.93"/><line class="cls-1" x1="279.67" y1="593.41" x2="279.67" y2="602.11"/><line class="cls-1" x1="289.11" y1="593.41" x2="289.11" y2="602.11"/><line class="cls-1" x1="298.83" y1="593.41" x2="298.83" y2="602.11"/><line class="cls-1" x1="248.16" y1="572.68" x2="255.38" y2="585.04"/><line class="cls-1" x1="262.6" y1="572.68" x2="255.38" y2="585.04"/><line class="cls-1" x1="247.88" y1="594.2" x2="251.77" y2="594.2"/><line class="cls-1" x1="257.32" y1="594.2" x2="261.76" y2="594.2"/><line class="cls-1" x1="249.82" y1="603.95" x2="254.4" y2="603.95"/><line class="cls-1" x1="259.54" y1="603.73" x2="264.26" y2="603.73"/><line class="cls-1" x1="240.8" y1="614.2" x2="269.29" y2="614.2"/><line class="cls-1" x1="240.8" y1="625.58" x2="269.29" y2="625.58"/><line class="cls-1" x1="250.38" y1="614.2" x2="250.38" y2="625.58"/><line class="cls-1" x1="260.37" y1="614.2" x2="260.37" y2="625.58"/><line class="cls-1" x1="240.86" y1="635.72" x2="268.71" y2="635.72"/><line class="cls-1" x1="240.86" y1="645.16" x2="269.29" y2="645.16"/><circle class="cls-1" cx="250.38" cy="565.05" r="1.74"/><circle class="cls-1" cx="260.37" cy="565.05" r="1.74"/><polygon class="cls-1" points="78.97 574.72 48.8 656.8 116.47 656.8 84.13 574.72 78.97 574.72"/><line class="cls-1" x1="81.48" y1="574.72" x2="65.72" y2="656.8"/><line class="cls-1" x1="94.29" y1="656.8" x2="81.48" y2="574.72"/><polyline class="cls-1" points="74.66 656.8 78.75 629.69 83.84 629.69 87.24 656.8"/><line class="cls-1" x1="70.52" y1="597.7" x2="93.19" y2="597.7"/><line class="cls-1" x1="68.54" y1="603.09" x2="95.13" y2="603.09"/><line class="cls-1" x1="66.78" y1="607.88" x2="97.13" y2="607.88"/><line class="cls-1" x1="76.63" y1="564.79" x2="78.97" y2="574.72"/><line class="cls-1" x1="79.91" y1="564.27" x2="80.51" y2="574.72"/><line class="cls-1" x1="82.63" y1="565.21" x2="81.48" y2="574.72"/><line class="cls-1" x1="85.77" y1="564.34" x2="82.63" y2="574.72"/><line class="cls-1" x1="88.2" y1="566.43" x2="84.13" y2="574.72"/><path class="cls-1" d="M53.78,643.24s4.41,6.09,4.94,5.74,5.5-4.26,5.5-4.26l3,4.27,6.38-3.73,2.5,2"/><polyline class="cls-1" points="86.16 648.21 92.38 644.55 99.14 648.21 105.88 644.55 111.37 648.21 112.37 646.38"/><path class="cls-1" d="M322.18,624c0-4.88.27-18.71.53-21.77s6.83-4.77,6.83,0c0,5.86-2.24,48.65-2.24,52.59,0,2.38-5.84,3-5.64-3C321.77,648.39,322.18,624,322.18,624Z"/><path class="cls-1" d="M322.12,627.9c-3-1.16-4.53-1.55-4.53-9.69V607.44c0-3.94-5-3.41-5.12,0s-.66,14.18,0,18.91,4.49,5.51,6.31,5.77a7.92,7.92,0,0,0,2.87,0"/><path class="cls-1" d="M328.24,633a3.37,3.37,0,0,0,2.74,0c1.44-.65,2.49-4,2.36-9s0-8.3,0-10.4,3-1.84,3.41,2.1-.14,12.93-.66,17.62-3.68,3.65-5.38,3.65-2.67.1-2.67.1"/><path class="cls-1" d="M1418.34,622.73c0-4,.21-15.45.43-18s5.63-3.94,5.63,0c0,4.84-1.84,40.16-1.84,43.42,0,2-4.82,2.49-4.66-2.49C1418,642.85,1418.34,622.73,1418.34,622.73Z"/><path class="cls-1" d="M1418.28,625.94c-2.44-1-3.74-1.29-3.74-8v-8.88c0-3.25-4.12-2.82-4.22,0s-.55,11.7,0,15.6,3.7,4.55,5.21,4.77a6.66,6.66,0,0,0,2.37,0"/><path class="cls-1" d="M1423.34,630.18a2.79,2.79,0,0,0,2.26,0c1.19-.54,2.05-3.31,2-7.45s0-6.85,0-8.59,2.48-1.52,2.8,1.73a94.66,94.66,0,0,1-.54,14.55c-.43,3.88-3,3-4.44,3s-2.2.08-2.2.08"/><path class="cls-1" d="M586.09,637.43c0-3.27.18-12.53.35-14.58s4.57-3.19,4.57,0c0,3.93-1.49,32.56-1.49,35.21,0,1.59-3.91,2-3.78-2C585.81,653.74,586.09,637.43,586.09,637.43Z"/><path class="cls-1" d="M586,640c-2-.78-3-1-3-6.49v-7.2c0-2.64-3.33-2.29-3.42,0s-.44,9.49,0,12.65a4.41,4.41,0,0,0,4.22,3.87,5.61,5.61,0,0,0,1.92,0"/><path class="cls-1" d="M590.14,643.47a2.28,2.28,0,0,0,1.84,0c1-.44,1.67-2.68,1.58-6s0-5.56,0-7,2-1.24,2.27,1.4a77.41,77.41,0,0,1-.44,11.8c-.35,3.14-2.46,2.44-3.6,2.44s-1.78.06-1.78.06"/><polygon class="cls-1" points="118.07 605.83 99.41 656.6 141.28 656.6 121.27 605.83 118.07 605.83"/><line class="cls-1" x1="119.63" y1="605.83" x2="109.88" y2="656.6"/><line class="cls-1" x1="127.55" y1="656.6" x2="119.63" y2="605.83"/><polyline class="cls-1" points="115.41 656.6 117.94 639.83 121.09 639.83 123.19 656.6"/><line class="cls-1" x1="112.85" y1="620.05" x2="126.87" y2="620.05"/><line class="cls-1" x1="111.62" y1="623.38" x2="128.07" y2="623.38"/><line class="cls-1" x1="110.53" y1="626.34" x2="129.31" y2="626.34"/><line class="cls-1" x1="116.63" y1="599.69" x2="118.07" y2="605.83"/><line class="cls-1" x1="118.66" y1="599.37" x2="119.03" y2="605.83"/><line class="cls-1" x1="120.34" y1="599.95" x2="119.63" y2="605.83"/><line class="cls-1" x1="122.28" y1="599.41" x2="120.34" y2="605.83"/><line class="cls-1" x1="123.78" y1="600.7" x2="121.27" y2="605.83"/><path class="cls-1" d="M102.49,648.22s2.73,3.76,3.06,3.55,3.4-2.64,3.4-2.64l1.86,2.64,4-2.31,1.54,1.24"/><polyline class="cls-1" points="122.53 651.29 126.37 649.03 130.55 651.29 134.72 649.03 138.12 651.29 138.74 650.16"/><path class="cls-1" d="M291.53,636.43c0-3.27.17-12.53.35-14.58s4.57-3.19,4.57,0c0,3.93-1.49,32.56-1.49,35.21,0,1.59-3.91,2-3.78-2C291.25,652.74,291.53,636.43,291.53,636.43Z"/><path class="cls-1" d="M291.48,639c-2-.78-3-1-3-6.49v-7.2c0-2.64-3.33-2.29-3.42,0s-.44,9.49,0,12.65a4.41,4.41,0,0,0,4.22,3.87,5.64,5.64,0,0,0,1.92,0"/><path class="cls-1" d="M295.58,642.47a2.28,2.28,0,0,0,1.84,0c1-.44,1.67-2.68,1.58-6s0-5.56,0-7,2-1.24,2.28,1.4a77.41,77.41,0,0,1-.44,11.8c-.35,3.14-2.46,2.44-3.6,2.44s-1.78.06-1.78.06"/><path class="cls-1" d="M23.18,629.69c0-3.27.17-12.53.35-14.58s4.57-3.19,4.57,0c0,3.93-1.5,32.56-1.5,35.2,0,1.6-3.91,2-3.78-2C22.9,646,23.18,629.69,23.18,629.69Z"/><path class="cls-1" d="M23.13,632.29c-2-.78-3-1-3-6.49v-7.2c0-2.64-3.34-2.29-3.43,0s-.44,9.48,0,12.65a4.4,4.4,0,0,0,4.23,3.86,5.33,5.33,0,0,0,1.92,0"/><path class="cls-1" d="M27.23,635.73a2.26,2.26,0,0,0,1.83,0c1-.44,1.67-2.69,1.58-6s0-5.56,0-7,2-1.24,2.28,1.4a78.54,78.54,0,0,1-.44,11.79c-.35,3.15-2.46,2.44-3.6,2.44s-1.79.07-1.79.07"/><path class="cls-1" d="M1380.89,615.7c0-5.85.32-22.4.63-26.06s8.17-5.71,8.17,0c0,7-2.67,58.22-2.67,62.94,0,2.85-7,3.62-6.76-3.61C1380.4,644.87,1380.89,615.7,1380.89,615.7Z"/><path class="cls-1" d="M1380.81,620.36c-3.53-1.4-5.42-1.87-5.42-11.61V595.87c0-4.72-6-4.09-6.12,0s-.79,17,0,22.62,5.37,6.6,7.55,6.91a9.61,9.61,0,0,0,3.44,0"/><path class="cls-1" d="M1388.14,626.5a4,4,0,0,0,3.28,0c1.73-.78,3-4.8,2.83-10.8s0-9.93,0-12.45,3.6-2.21,4.07,2.51-.16,15.47-.79,21.09-4.39,4.37-6.44,4.37-3.18.12-3.18.12"/><path class="cls-1" d="M170.86,594.53h15.61V612h17.22l5.07,1.74c-.4,5.07-2.94,7.47-5.34,7.47H186.34V649.9H170.86V621.34s-10,2.14-16.68,0-5.73-7.07-5.73-7.07l5.2-2.67h17.18Z"/><line class="cls-1" x1="170.83" y1="591.8" x2="170.83" y2="594.53"/><line class="cls-1" x1="186.48" y1="591.8" x2="186.48" y2="594.53"/><path class="cls-1" d="M176,594.53v-4.48c0-.67,1.06-.74,1.82-.74H180c1.36,0,1.51.83,1.51,2.61v2.61"/><line class="cls-1" x1="170.85" y1="599.82" x2="186.47" y2="599.82"/><line class="cls-1" x1="170.85" y1="605.19" x2="186.47" y2="605.19"/><line class="cls-1" x1="170.85" y1="610.55" x2="186.47" y2="610.55"/><line class="cls-1" x1="170.83" y1="611.6" x2="170.83" y2="621.34"/><line class="cls-1" x1="165.61" y1="616.47" x2="165.61" y2="622.09"/><line class="cls-1" x1="160.32" y1="616.47" x2="160.32" y2="622.09"/><line class="cls-1" x1="155.18" y1="616.47" x2="155.18" y2="621.66"/><line class="cls-1" x1="192" y1="616.47" x2="192" y2="621.21"/><line class="cls-1" x1="197.14" y1="616.47" x2="197.14" y2="621.21"/><line class="cls-1" x1="202.43" y1="616.47" x2="202.43" y2="621.21"/><line class="cls-1" x1="174.83" y1="605.19" x2="178.77" y2="611.91"/><line class="cls-1" x1="182.7" y1="605.19" x2="178.77" y2="611.91"/><line class="cls-1" x1="174.68" y1="616.9" x2="176.8" y2="616.9"/><line class="cls-1" x1="179.82" y1="616.9" x2="182.24" y2="616.9"/><line class="cls-1" x1="175.74" y1="622.21" x2="178.24" y2="622.21"/><line class="cls-1" x1="181.03" y1="622.09" x2="183.6" y2="622.09"/><line class="cls-1" x1="170.83" y1="627.79" x2="186.34" y2="627.79"/><line class="cls-1" x1="170.83" y1="633.99" x2="186.34" y2="633.99"/><line class="cls-1" x1="176.04" y1="627.79" x2="176.04" y2="633.99"/><line class="cls-1" x1="181.49" y1="627.79" x2="181.49" y2="633.99"/><line class="cls-1" x1="170.86" y1="639.51" x2="186.02" y2="639.51"/><line class="cls-1" x1="170.86" y1="644.65" x2="186.34" y2="644.65"/><circle class="cls-1" cx="176.04" cy="601.03" r="0.95"/><circle class="cls-1" cx="181.49" cy="601.03" r="0.95"/></g></svg>