<svg xmlns="http://www.w3.org/2000/svg" viewBox="0 0 584.62 486.97"><defs><style>.cls-1{fill:#ddd;}.cls-2{font-size:27px;font-family:DFWaWaSC-W5-GBpc-EUC-H, Wawati SC;}.cls-3{letter-spacing:0.25em;}</style></defs><title>アセット 17</title><g id="レイヤー_2" data-name="レイヤー 2"><g id="レイヤー_1-2" data-name="レイヤー 1"><path class="cls-1" d="M398.87,454.2l-91.53,26.72a150.85,150.85,0,0,1-146.55-35.79l-68.9-65.91A150.84,150.84,0,0,1,49.61,234.41l22.63-92.63a150.84,150.84,0,0,1,104.27-109L268,6.05A150.85,150.85,0,0,1,414.59,41.84l68.9,65.91a150.87,150.87,0,0,1,42.28,144.81l-22.63,92.63A150.84,150.84,0,0,1,398.87,454.2Z"/><path d="M5.21,206.44A157.84,157.84,0,0,1,9,231c.7,8.18,1,16.36,1,24.53S9.6,271.86,8.83,280a158.16,158.16,0,0,1-4,24.51A158.18,158.18,0,0,1,1,280q-1-12.25-1-24.53C0,247.3.42,239.12,1.19,231A160.53,160.53,0,0,1,5.21,206.44Z"/><path d="M19.76,256.42a59.67,59.67,0,0,1,12.59,8.1,96.39,96.39,0,0,1,10.48,10A95.67,95.67,0,0,1,51.72,286a58.75,58.75,0,0,1,6.75,13.36,58.65,58.65,0,0,1-12.59-8.1,94.56,94.56,0,0,1-10.48-10,96.43,96.43,0,0,1-8.87-11.46A59.14,59.14,0,0,1,19.76,256.42Z"/><path d="M102.75,211.15a30.48,30.48,0,0,1,14.2,3.38,32.64,32.64,0,0,1,6.28,4.32,36.41,36.41,0,0,1,5.19,5.75,39.85,39.85,0,0,1,6.35,14,47.8,47.8,0,0,1,1.11,15.2c-.86,10.14-4.73,19.75-10,28.06A43.51,43.51,0,0,1,116,293a31.43,31.43,0,0,1-13.92,6.13,27.07,27.07,0,0,1-8,.25,21.79,21.79,0,0,1-8-2.69,25.31,25.31,0,0,1-6.5-5.29,35.24,35.24,0,0,1-4.59-6.7,53.69,53.69,0,0,1-5.19-14.76,63.91,63.91,0,0,1-1.18-15.28A67,67,0,0,1,71,239.57a45.7,45.7,0,0,1,6.59-13.87,37.79,37.79,0,0,1,11-10.57A26.54,26.54,0,0,1,102.75,211.15Zm0,1a17.66,17.66,0,0,0-12.4,5.17,29.52,29.52,0,0,0-6.69,11.54A94.13,94.13,0,0,0,79.33,255a82.51,82.51,0,0,0,.7,13.17,47.69,47.69,0,0,0,3.29,12.41,25.83,25.83,0,0,0,7,9.68,17.33,17.33,0,0,0,11.29,3.86,21.55,21.55,0,0,0,12.5-3.72,27.28,27.28,0,0,0,8.83-10.21,39.81,39.81,0,0,0,3.92-13.08,81.74,81.74,0,0,0,.53-13.51,106.83,106.83,0,0,0-1.23-13.21A64.92,64.92,0,0,0,123,227.6a29.63,29.63,0,0,0-3-5.94,21.56,21.56,0,0,0-4.43-5.06,19,19,0,0,0-6-3.36c-.55-.17-1.11-.33-1.67-.48l-1.72-.35-1.73-.19Z"/><path d="M232.12,211.77a82.94,82.94,0,0,1,17.37-3.92,140.35,140.35,0,0,1,17.36-1.08,134.74,134.74,0,0,1,17.36,1.07,82.34,82.34,0,0,1,17.37,3.93,82.34,82.34,0,0,1-17.37,3.93,138.42,138.42,0,0,1-17.36,1.07,140.35,140.35,0,0,1-17.36-1.08A83.57,83.57,0,0,1,232.12,211.77Z"/><path d="M265.15,219.46a121.27,121.27,0,0,1,3.92,21.27A210.44,210.44,0,0,1,270.15,262a202,202,0,0,1-1.07,21.27,120.38,120.38,0,0,1-3.93,21.27,120.38,120.38,0,0,1-3.93-21.27A207.5,207.5,0,0,1,260.15,262a210.44,210.44,0,0,1,1.08-21.28A122.19,122.19,0,0,1,265.15,219.46Z"/><path d="M350.3,206.44a151.28,151.28,0,0,1,3.91,23.87c.74,8,1.08,15.92,1.09,23.88s-.34,15.92-1.07,23.88a150,150,0,0,1-3.93,23.87,150,150,0,0,1-3.93-23.87c-.74-8-1.08-15.92-1.07-23.88s.35-15.92,1.08-23.88A151.31,151.31,0,0,1,350.3,206.44Z"/><path d="M476.09,206.44a338.48,338.48,0,0,1,29.72,20.93q14.3,11.12,27.85,23.07t26.43,24.68a334.47,334.47,0,0,1,24.53,26.82A336.43,336.43,0,0,1,554.89,281q-14.29-11.11-27.83-23.08t-26.42-24.68A340.25,340.25,0,0,1,476.09,206.44Z"/><path d="M576.39,214.39a202.86,202.86,0,0,1-13.95,24.3q-7.65,11.61-16.19,22.55t-17.89,21.23a198.5,198.5,0,0,1-20.14,19.47,200.11,200.11,0,0,1,13.94-24.3q7.65-11.62,16.2-22.54t17.9-21.23A202.82,202.82,0,0,1,576.39,214.39Z"/><path d="M354.54,206.44a19.9,19.9,0,0,1,9-4.88,18.19,18.19,0,0,1,11.2.89,19.16,19.16,0,0,1,9,7.73A21.61,21.61,0,0,1,387,221.7a24.06,24.06,0,0,1-.84,5.88l-.42,1.42c-.16.46-.36.91-.55,1.36l-.56,1.34c-.22.43-.46.85-.7,1.27a26.65,26.65,0,0,1-7.4,8.28,30,30,0,0,1-9.39,4.64,31.81,31.81,0,0,1-10,1.36c2.7-2,5.37-3.73,7.73-5.73a42.86,42.86,0,0,0,6.35-6.08c3.62-4.28,5.7-9.09,5.77-13.83a14.84,14.84,0,0,0-5.87-12.23,16,16,0,0,0-7.27-2.94A35.41,35.41,0,0,0,354.54,206.44Z"/><path d="M9.85,206.44a23.73,23.73,0,0,1,9.2-7.41c.48-.21,1-.41,1.47-.61l1.57-.41a9.9,9.9,0,0,1,1.62-.33l1.69-.13c.28,0,.57-.05.86-.05l.86.07,1.74.19c.57.1,1.14.28,1.71.42a8.54,8.54,0,0,1,1.68.58,20.1,20.1,0,0,1,9.92,9.46,19.88,19.88,0,0,1,1.35,3.07l.55,1.57c.15.53.28,1.06.41,1.6a21,21,0,0,1,.57,3.23,25.38,25.38,0,0,1,.24,3.25,34,34,0,0,1-.57,6.46,33.85,33.85,0,0,1-1.89,6.17,29.67,29.67,0,0,1-17.9,16.6c-1,.27-1.93.55-2.88.79a26.91,26.91,0,0,1-2.92.48l-1.45.18c-.48,0-1,0-1.46,0-1,0-1.94,0-2.89-.06a74.38,74.38,0,0,0,9.35-5.78,36.23,36.23,0,0,0,7-7.16,29.18,29.18,0,0,0,5.6-17.56c-.09-6.07-2.17-12.28-6.58-15.34a12.61,12.61,0,0,0-8.42-2A39.27,39.27,0,0,0,9.85,206.44Z"/><path d="M359.75,249.85a33.31,33.31,0,0,1,11.09.09,31.77,31.77,0,0,1,10.89,4,23.28,23.28,0,0,1,8.76,9.07,19.18,19.18,0,0,1,1.66,13.51l-.47,1.65c-.17.54-.41,1-.62,1.57a20.89,20.89,0,0,1-1.49,2.95c-.55,1-1.23,1.76-1.84,2.63s-1.36,1.58-2.07,2.34A35.47,35.47,0,0,1,376,294.4a46.67,46.67,0,0,1-10.57,3.71,47.81,47.81,0,0,1-10.92,1.23c6.15-4,12.19-7.48,17.33-11.61a43.37,43.37,0,0,0,6.79-6.48c.41-.6.89-1.15,1.3-1.74s.79-1.17,1.06-1.78a12.64,12.64,0,0,0,.85-1.79c.1-.3.25-.59.34-.89s.14-.61.23-.9a4,4,0,0,0,.18-.89c0-.3.13-.59.14-.89a13.07,13.07,0,0,0,0-1.77,11,11,0,0,0-.24-1.78c-.05-.29-.19-.58-.27-.88a5.18,5.18,0,0,0-.3-.89l-.37-.9c-.14-.29-.32-.58-.48-.87-.29-.6-.72-1.16-1.09-1.76s-.89-1.12-1.36-1.68-1-1.13-1.57-1.62a41.69,41.69,0,0,0-7.84-5.67C366.29,252.85,363.1,251.39,359.75,249.85Z"/><text class="cls-2" transform="translate(67.36 364.59) scale(0.98 1)">世界のルーツを発信す<tspan class="cls-3" x="270" y="0">る</tspan><tspan x="303.75" y="0">We</tspan><tspan class="cls-3" x="339.15" y="0">b</tspan><tspan x="359.91" y="0">メディア</tspan></text><path d="M188.71,211.15a30.47,30.47,0,0,1,14.19,3.38,32,32,0,0,1,6.28,4.32,36.47,36.47,0,0,1,5.2,5.75,40,40,0,0,1,6.35,14,48.09,48.09,0,0,1,1.11,15.2c-.86,10.14-4.74,19.75-10,28.06A43.7,43.7,0,0,1,201.93,293,31.47,31.47,0,0,1,188,299.11a27,27,0,0,1-8,.25,21.84,21.84,0,0,1-8-2.69,25.26,25.26,0,0,1-6.49-5.29,35.3,35.3,0,0,1-4.6-6.7,53.69,53.69,0,0,1-5.19-14.76,63.39,63.39,0,0,1-1.17-15.28,66.43,66.43,0,0,1,2.4-15.07,46.17,46.17,0,0,1,6.59-13.87,38,38,0,0,1,11-10.57A26.58,26.58,0,0,1,188.71,211.15Zm0,1a17.87,17.87,0,0,0-6.76,1.38,18.16,18.16,0,0,0-5.65,3.79,29.65,29.65,0,0,0-6.69,11.54,87.91,87.91,0,0,0-3.08,12.92A86.09,86.09,0,0,0,165.29,255a82.51,82.51,0,0,0,.7,13.17,46.91,46.91,0,0,0,3.29,12.41,25.7,25.7,0,0,0,7,9.68,17.35,17.35,0,0,0,11.3,3.86,21.59,21.59,0,0,0,12.5-3.72,27.45,27.45,0,0,0,8.83-10.21,40,40,0,0,0,3.91-13.08,81.76,81.76,0,0,0,.54-13.51,108.8,108.8,0,0,0-1.24-13.21,65.6,65.6,0,0,0-3.16-12.78,30.17,30.17,0,0,0-2.95-5.94,21.56,21.56,0,0,0-4.43-5.06,19.15,19.15,0,0,0-6-3.36c-.55-.17-1.11-.33-1.67-.48l-1.71-.35-1.74-.19Z"/><path d="M442.23,211.15a30.48,30.48,0,0,1,14.2,3.38,32.27,32.27,0,0,1,6.27,4.32,36,36,0,0,1,5.2,5.75,39.85,39.85,0,0,1,6.35,14,47.8,47.8,0,0,1,1.11,15.2c-.86,10.14-4.73,19.75-10,28.06A43.51,43.51,0,0,1,455.45,293a31.42,31.42,0,0,1-13.93,6.13,27,27,0,0,1-8,.25,21.73,21.73,0,0,1-7.95-2.69,25.14,25.14,0,0,1-6.5-5.29,35.77,35.77,0,0,1-4.6-6.7,53.69,53.69,0,0,1-5.19-14.76,63.9,63.9,0,0,1-1.17-15.28,65.9,65.9,0,0,1,2.41-15.07,45.7,45.7,0,0,1,6.59-13.87,37.79,37.79,0,0,1,11-10.57A26.54,26.54,0,0,1,442.23,211.15Zm0,1a17.91,17.91,0,0,0-6.76,1.38,18.28,18.28,0,0,0-5.65,3.79,29.63,29.63,0,0,0-6.68,11.54A94.13,94.13,0,0,0,418.81,255a82.51,82.51,0,0,0,.7,13.17,47.3,47.3,0,0,0,3.29,12.41,25.92,25.92,0,0,0,7,9.68,17.37,17.37,0,0,0,11.3,3.86,21.57,21.57,0,0,0,12.5-3.72,27.28,27.28,0,0,0,8.83-10.21,40.05,40.05,0,0,0,3.92-13.08,81.74,81.74,0,0,0,.53-13.51,106.83,106.83,0,0,0-1.23-13.21,65.63,65.63,0,0,0-3.17-12.78,29.63,29.63,0,0,0-2.95-5.94,21.56,21.56,0,0,0-4.43-5.06,19.15,19.15,0,0,0-6-3.36c-.55-.17-1.11-.33-1.67-.48l-1.71-.35-1.74-.19Z"/></g></g></svg>