<svg xmlns="http://www.w3.org/2000/svg" viewBox="0 0 584.62 107.05"><defs><style>.cls-1{fill:#fff;}</style></defs><title>アセット 18</title><g id="レイヤー_2" data-name="レイヤー 2"><g id="レイヤー_1-2" data-name="レイヤー 1"><path class="cls-1" d="M5.21,8.94A158.21,158.21,0,0,1,9,33.48c.7,8.18,1,16.36,1,24.54S9.6,74.37,8.83,82.54a158.16,158.16,0,0,1-4,24.51A157.87,157.87,0,0,1,1,82.51Q-.08,70.24,0,58C0,49.8.42,41.62,1.19,33.45A160.53,160.53,0,0,1,5.21,8.94Z"/><path class="cls-1" d="M19.76,58.92A59.32,59.32,0,0,1,32.35,67,96.31,96.31,0,0,1,42.83,77a95.67,95.67,0,0,1,8.89,11.45,59,59,0,0,1,6.75,13.36,58.65,58.65,0,0,1-12.59-8.1,94.56,94.56,0,0,1-10.48-10,96.43,96.43,0,0,1-8.87-11.46A58.93,58.93,0,0,1,19.76,58.92Z"/><path class="cls-1" d="M102.75,13.65A30.37,30.37,0,0,1,117,17a32.15,32.15,0,0,1,6.28,4.31,36.41,36.41,0,0,1,5.19,5.75,39.81,39.81,0,0,1,6.35,14,47.74,47.74,0,0,1,1.11,15.19c-.86,10.14-4.73,19.75-10,28.06A43.51,43.51,0,0,1,116,95.48a31.43,31.43,0,0,1-13.92,6.13,27.07,27.07,0,0,1-8,.25,21.79,21.79,0,0,1-8-2.69,25.31,25.31,0,0,1-6.5-5.29A35.49,35.49,0,0,1,75,87.19,53.87,53.87,0,0,1,69.8,72.42a63.87,63.87,0,0,1-1.18-15.28A67,67,0,0,1,71,42.07,45.7,45.7,0,0,1,77.62,28.2a37.79,37.79,0,0,1,11-10.57A26.63,26.63,0,0,1,102.75,13.65Zm0,1a17.66,17.66,0,0,0-12.4,5.17,29.52,29.52,0,0,0-6.69,11.54,88,88,0,0,0-3.09,12.92,87.36,87.36,0,0,0-1.24,13.21A82.51,82.51,0,0,0,80,70.66a47.69,47.69,0,0,0,3.29,12.41,25.83,25.83,0,0,0,7,9.68,17.27,17.27,0,0,0,11.29,3.86,21.55,21.55,0,0,0,12.5-3.72,27.32,27.32,0,0,0,8.83-10.2,39.94,39.94,0,0,0,3.92-13.09,81.74,81.74,0,0,0,.53-13.51,106.83,106.83,0,0,0-1.23-13.21A64.92,64.92,0,0,0,123,30.1a30.16,30.16,0,0,0-3-5.94,21.56,21.56,0,0,0-4.43-5.06,19,19,0,0,0-6-3.36c-.55-.17-1.11-.33-1.67-.48l-1.72-.35-1.73-.19Z"/><path class="cls-1" d="M232.12,14.27a83.57,83.57,0,0,1,17.37-3.92,140.35,140.35,0,0,1,17.36-1.08,138.42,138.42,0,0,1,17.36,1.07,82.34,82.34,0,0,1,17.37,3.93,82.34,82.34,0,0,1-17.37,3.93,134.74,134.74,0,0,1-17.36,1.07,140.35,140.35,0,0,1-17.36-1.08A82.94,82.94,0,0,1,232.12,14.27Z"/><path class="cls-1" d="M265.15,22a121.2,121.2,0,0,1,3.92,21.28,210.4,210.4,0,0,1,1.08,21.27,202,202,0,0,1-1.07,21.27,120.38,120.38,0,0,1-3.93,21.27,120.38,120.38,0,0,1-3.93-21.27,207.5,207.5,0,0,1-1.07-21.27,210.4,210.4,0,0,1,1.08-21.27A122.13,122.13,0,0,1,265.15,22Z"/><path class="cls-1" d="M350.3,8.94a151.21,151.21,0,0,1,3.91,23.88c.74,8,1.08,15.91,1.09,23.87s-.34,15.92-1.07,23.88a150.13,150.13,0,0,1-3.93,23.88,150.13,150.13,0,0,1-3.93-23.88c-.74-8-1.08-15.92-1.07-23.88s.35-15.91,1.08-23.87A151.24,151.24,0,0,1,350.3,8.94Z"/><path class="cls-1" d="M476.09,8.94a336.47,336.47,0,0,1,29.72,20.94q14.3,11.1,27.85,23.06t26.43,24.68a332.91,332.91,0,0,1,24.53,26.83,338.64,338.64,0,0,1-29.73-20.93Q540.6,72.41,527.06,60.45T500.64,35.76A340.25,340.25,0,0,1,476.09,8.94Z"/><path class="cls-1" d="M576.39,16.89a202.86,202.86,0,0,1-13.95,24.3q-7.65,11.63-16.19,22.55T528.36,85a199.67,199.67,0,0,1-20.14,19.48,199.49,199.49,0,0,1,13.94-24.31q7.65-11.61,16.2-22.54t17.9-21.23A204,204,0,0,1,576.39,16.89Z"/><path class="cls-1" d="M354.54,8.94a19.9,19.9,0,0,1,9-4.88,18.19,18.19,0,0,1,11.2.89,19.16,19.16,0,0,1,9,7.73A21.61,21.61,0,0,1,387,24.2a24.21,24.21,0,0,1-.84,5.89l-.42,1.41c-.16.46-.36.91-.55,1.36l-.56,1.34c-.22.43-.46.85-.7,1.27a26.54,26.54,0,0,1-7.4,8.28,29.83,29.83,0,0,1-9.39,4.64,31.53,31.53,0,0,1-10,1.36c2.7-2,5.37-3.72,7.73-5.73a42.86,42.86,0,0,0,6.35-6.08c3.62-4.27,5.7-9.09,5.77-13.83a14.85,14.85,0,0,0-5.87-12.23A15.94,15.94,0,0,0,363.86,9,35,35,0,0,0,354.54,8.94Z"/><path class="cls-1" d="M9.85,8.94a23.73,23.73,0,0,1,9.2-7.41c.48-.21,1-.41,1.47-.61L22.09.51A11.07,11.07,0,0,1,23.71.18L25.4.05c.28,0,.57,0,.86,0l.86.07,1.74.19c.57.1,1.14.28,1.71.43a7.92,7.92,0,0,1,1.68.57,20.1,20.1,0,0,1,9.92,9.46,20.31,20.31,0,0,1,1.35,3.07l.55,1.57c.15.53.28,1.07.41,1.6a21.23,21.23,0,0,1,.57,3.23,25.4,25.4,0,0,1,.24,3.26,33.93,33.93,0,0,1-.57,6.45,33.85,33.85,0,0,1-1.89,6.17A29.78,29.78,0,0,1,35.5,46.45a30.08,30.08,0,0,1-10.57,6.23c-1,.26-1.93.54-2.88.78a26.91,26.91,0,0,1-2.92.48l-1.45.18c-.48,0-1,0-1.46,0-1,0-1.94,0-2.89-.06a74.38,74.38,0,0,0,9.35-5.78,36.23,36.23,0,0,0,7-7.16,29.18,29.18,0,0,0,5.6-17.56c-.09-6.07-2.17-12.28-6.58-15.33a12.56,12.56,0,0,0-8.42-2A39.27,39.27,0,0,0,9.85,8.94Z"/><path class="cls-1" d="M359.75,52.35a33.85,33.85,0,0,1,11.09.09,31.77,31.77,0,0,1,10.89,4,23.28,23.28,0,0,1,8.76,9.07A19.19,19.19,0,0,1,392.15,79l-.47,1.65c-.17.55-.41,1-.62,1.57a20.89,20.89,0,0,1-1.49,3c-.55,1-1.23,1.76-1.84,2.64s-1.36,1.58-2.07,2.33A35.73,35.73,0,0,1,376,96.91a47.13,47.13,0,0,1-10.57,3.7,47.81,47.81,0,0,1-10.92,1.23c6.15-4,12.19-7.48,17.33-11.61a42.47,42.47,0,0,0,6.79-6.48c.41-.6.89-1.15,1.3-1.74s.79-1.17,1.06-1.78a12.64,12.64,0,0,0,.85-1.79c.1-.3.25-.59.34-.89s.14-.6.23-.9a3.91,3.91,0,0,0,.18-.89,8.68,8.68,0,0,0,.14-.89,13.07,13.07,0,0,0,0-1.77,10.75,10.75,0,0,0-.24-1.77c-.05-.3-.19-.59-.27-.89a5.18,5.18,0,0,0-.3-.89l-.37-.9c-.14-.29-.32-.58-.48-.87A19.37,19.37,0,0,0,380,66c-.43-.57-.89-1.13-1.36-1.69s-1-1.13-1.57-1.61a40.82,40.82,0,0,0-7.84-5.67C366.29,55.35,363.1,53.9,359.75,52.35Z"/><path class="cls-1" d="M188.71,13.65A30.36,30.36,0,0,1,202.9,17a31.56,31.56,0,0,1,6.28,4.31,36.47,36.47,0,0,1,5.2,5.75,40,40,0,0,1,6.35,14,48,48,0,0,1,1.11,15.19c-.86,10.14-4.74,19.75-10,28.06a43.7,43.7,0,0,1-9.89,11.09A31.47,31.47,0,0,1,188,101.61a27,27,0,0,1-8,.25,21.84,21.84,0,0,1-8-2.69,25.26,25.26,0,0,1-6.49-5.29,35.55,35.55,0,0,1-4.6-6.69,53.87,53.87,0,0,1-5.19-14.77,63.35,63.35,0,0,1-1.17-15.28A66.43,66.43,0,0,1,157,42.07a46.17,46.17,0,0,1,6.59-13.87,38,38,0,0,1,11-10.57A26.67,26.67,0,0,1,188.71,13.65Zm0,1A17.87,17.87,0,0,0,182,16a18.16,18.16,0,0,0-5.65,3.79,29.65,29.65,0,0,0-6.69,11.54,87.91,87.91,0,0,0-3.08,12.92,86.09,86.09,0,0,0-1.24,13.21,82.51,82.51,0,0,0,.7,13.17,46.91,46.91,0,0,0,3.29,12.41,25.7,25.7,0,0,0,7,9.68,17.3,17.3,0,0,0,11.3,3.86,21.59,21.59,0,0,0,12.5-3.72,27.5,27.5,0,0,0,8.83-10.2A40.16,40.16,0,0,0,212.8,69.6a81.76,81.76,0,0,0,.54-13.51,108.8,108.8,0,0,0-1.24-13.21,65.6,65.6,0,0,0-3.16-12.78A30.73,30.73,0,0,0,206,24.16a21.56,21.56,0,0,0-4.43-5.06,19.15,19.15,0,0,0-6-3.36c-.55-.17-1.11-.33-1.67-.48l-1.71-.35-1.74-.19Z"/><path class="cls-1" d="M442.23,13.65A30.37,30.37,0,0,1,456.43,17a31.78,31.78,0,0,1,6.27,4.31,36,36,0,0,1,5.2,5.75,39.81,39.81,0,0,1,6.35,14,47.74,47.74,0,0,1,1.11,15.19c-.86,10.14-4.73,19.75-10,28.06a43.51,43.51,0,0,1-9.89,11.09,31.42,31.42,0,0,1-13.93,6.13,27,27,0,0,1-8,.25,21.73,21.73,0,0,1-7.95-2.69,25.14,25.14,0,0,1-6.5-5.29,36,36,0,0,1-4.6-6.69,53.87,53.87,0,0,1-5.19-14.77,63.86,63.86,0,0,1-1.17-15.28,65.9,65.9,0,0,1,2.41-15.07A45.7,45.7,0,0,1,417.1,28.2a37.79,37.79,0,0,1,11-10.57A26.63,26.63,0,0,1,442.23,13.65Zm0,1A17.91,17.91,0,0,0,435.47,16a18.28,18.28,0,0,0-5.65,3.79,29.63,29.63,0,0,0-6.68,11.54,86.69,86.69,0,0,0-3.09,12.92,87.36,87.36,0,0,0-1.24,13.21,82.51,82.51,0,0,0,.7,13.17,47.3,47.3,0,0,0,3.29,12.41,25.92,25.92,0,0,0,7,9.68,17.32,17.32,0,0,0,11.3,3.86,21.57,21.57,0,0,0,12.5-3.72,27.32,27.32,0,0,0,8.83-10.2,40.18,40.18,0,0,0,3.92-13.09,81.74,81.74,0,0,0,.53-13.51,106.83,106.83,0,0,0-1.23-13.21,65.63,65.63,0,0,0-3.17-12.78,30.16,30.16,0,0,0-2.95-5.94,21.56,21.56,0,0,0-4.43-5.06,19.15,19.15,0,0,0-6-3.36c-.55-.17-1.11-.33-1.67-.48l-1.71-.35L444,14.72Z"/></g></g></svg>